<?xml version="1.0" encoding="utf-8"?>
<!-- Generator: Adobe Illustrator 23.0.1, SVG Export Plug-In . SVG Version: 6.00 Build 0)  -->
<svg version="1.1" id="Layer_1" xmlns="http://www.w3.org/2000/svg" xmlns:xlink="http://www.w3.org/1999/xlink" x="0px" y="0px"
	 viewBox="0 0 1000 1000" style="enable-background:new 0 0 1000 1000;" xml:space="preserve">
<style type="text/css">
	.st0{fill:url(#path4719_6_);}
	.st1{fill:url(#path4743_6_);}
	.st2{fill:#0A3152;}
	.st3{fill:#010101;}
	.st4{fill:#D0D2D3;}
	.st5{fill:url(#path4719_7_);}
	.st6{fill:url(#path4743_7_);}
</style>
<g>
	<g id="g4699_3_">
		<g id="g4705_3_">
			<g id="g4711_3_">
				
					<linearGradient id="path4719_6_" gradientUnits="userSpaceOnUse" x1="-493.4139" y1="6188.2998" x2="-471.2587" y2="6188.2998" gradientTransform="matrix(17.8893 21.5653 21.5653 -17.8893 -124444.7656 121550.8594)">
					<stop  offset="0" style="stop-color:#EF3B23"/>
					<stop  offset="1" style="stop-color:#8B131E"/>
				</linearGradient>
				<path id="path4719_3_" class="st0" d="M490.7,182.7c-171,5.1-308.4,145-308.4,317.2c0,175.5,142.2,317.7,317.5,317.7
					c58.1,0,215.9-24.3,290.2-188.4c-31.9,13-66.7,20.1-103.2,20.1c-151.4,0-273.7-98.1-273.9-249.4
					c-0.1-77.8,23.4-140.3,59.4-186.5c7.3-9.4,19.3-22.5,27.5-30.9C499.4,182.5,491.2,182.7,490.7,182.7"/>
			</g>
		</g>
	</g>
	<g id="g4723_3_">
		<g id="g4729_3_">
			<g id="g4735_3_">
				
					<linearGradient id="path4743_6_" gradientUnits="userSpaceOnUse" x1="-345.1779" y1="6256.0303" x2="-323.0227" y2="6256.0303" gradientTransform="matrix(24.0187 0 0 -24.0187 8476.5967 150761.5)">
					<stop  offset="0" style="stop-color:#B7212F"/>
					<stop  offset="1" style="stop-color:#EF3B23"/>
				</linearGradient>
				<path id="path4743_3_" class="st1" d="M528.3,213.2C576,276.8,587,337.6,587,400c0,151.3-122.7,249.5-273.9,249.5
					c-36.5,0-71.2-7.2-103.1-20.1C285.7,798,441.9,817.7,500,817.7c175.4,0,317.7-142.2,317.7-317.7
					c0-172.2-137.5-312.1-308.5-317.2c-0.4,0-8.9-0.4-9.4-0.4C508.1,190.7,521.2,203.6,528.3,213.2"/>
			</g>
		</g>
	</g>
</g>
</svg>
