<?xml version="1.0" encoding="utf-8"?>
<!-- Generator: Adobe Illustrator 23.0.1, SVG Export Plug-In . SVG Version: 6.00 Build 0)  -->
<svg version="1.1" id="Layer_1" xmlns="http://www.w3.org/2000/svg" xmlns:xlink="http://www.w3.org/1999/xlink" x="0px" y="0px"
	 viewBox="0 0 1000 1000" enable-background="new 0 0 1000 1000" xml:space="preserve">
<g>
	<path fill="#F15A29" d="M535.1,802.5l-291.2,0.4v-7.7l214.4-8.4c40.7-1.4,80.4-3.5,118.6-16.8c78.2-26.3,141.1-79.7,159.3-145.6
		c19.6-70.9-25.6-139.7-110.9-145.6c72.3-21.1,134-67,150.5-126c21.4-76.5-17.2-115.4-82.5-129.5c108.4-1.8,193,34.7,164.2,138.2
		C841,420.4,777.9,465.3,705.9,485c84.6,6.3,130.5,86.7,108.4,156.8c-23.2,73-82.1,118.2-160.7,144.6
		C615.4,798.7,576.1,800.8,535.1,802.5"/>
	<path fill="#F15A29" d="M382.4,765.7l-137.5,6.7c0-3.5-0.4-4.6-0.7-8.1l347.4-100.4l0.4-5.6L240,742.9c-1.1-3.2-1.4-4.2-2.8-7.4
		l369.5-204.9l-2.5-5.6L225.9,718.3c-2.5-3.2-2.1-3.5-4.6-6.3L661,297.6l-3.9-4.6L204.5,698c-2.1-1.4-3.2-2.8-5.6-4.2l321.4-468.4
		l-5.6-1.8L180,685c-1.8-0.7-3.9-1.1-5.6-1.8l183.9-453l-4.9-0.7L146.3,679c-2.5,0-5.3,0-7.7,0.4h-1.8l133.3-482.1l249.5,0.7
		C637.5,191.3,730.9,223.2,700,333C683.5,392,621.7,438,549.8,457.6l-0.4,1.4c85.3,6,133.3,74.7,113.7,145.6
		c-18.2,66-84.2,117.5-162.5,143.9C462.4,762.2,423.1,764.3,382.4,765.7"/>
</g>
</svg>
