<?xml version="1.0" encoding="utf-8"?>
<!-- Generator: Adobe Illustrator 16.0.0, SVG Export Plug-In . SVG Version: 6.00 Build 0)  -->
<!DOCTYPE svg PUBLIC "-//W3C//DTD SVG 1.1//EN" "http://www.w3.org/Graphics/SVG/1.1/DTD/svg11.dtd">
<svg version="1.1" id="Layer_1" xmlns="http://www.w3.org/2000/svg" xmlns:xlink="http://www.w3.org/1999/xlink" x="0px" y="0px"
	 width="300px" height="280px" viewBox="0 0 300 280" style="enable-background:new 0 0 300 280;" xml:space="preserve">
<style type="text/css">
<![CDATA[
	.st0{clip-path:url(#SVGID_2_);fill-rule:evenodd;clip-rule:evenodd;fill:#FFFFFF;}
	.st1{fill-rule:evenodd;clip-rule:evenodd;fill:#F58220;}
	.st2{clip-path:url(#SVGID_2_);fill:#FFFFFF;}
	.st3{fill-rule:evenodd;clip-rule:evenodd;fill:#005BAA;}
]]>
</style>
<rect x="41.7" y="105" class="st3" width="216.5" height="69.2"/>
<rect x="41.7" y="163.3" class="st1" width="216.5" height="11.7"/>
<g>
	<defs>
		<rect id="SVGID_1_" width="300" height="280"/>
	</defs>
	<clipPath id="SVGID_2_">
		<use xlink:href="#SVGID_1_"  style="overflow:visible;"/>
	</clipPath>
	<path class="st0" d="M210,137c0.7,0,1.4,0,2,0c0.3,0,0.7,0,1,0c0.1,0,0.4,0,0.5,0l0.4-0.1c0.1-0.1,1.6-11,1.9-13.1
		c0-0.3,0-0.6,0.2-0.8c3,3.3,7.4,7.5,10.6,10.7l3.5,3.6c0.2-0.3,0.4-2.1,0.5-2.6l1.2-7.9c0.5-3.5,1.2-7.2,1.6-10.7h-4.3
		c0,0-1.6,12.1-1.8,12.6c-0.1,0.2,0,0.1-0.1,0.2l-4.4-4.3c-0.4-0.3-0.5-0.5-0.9-0.9c-0.6-0.6-1.2-1.1-1.9-1.7
		c-0.3-0.3-0.5-0.6-0.8-0.9c-0.3-0.3-0.6-0.5-0.9-0.8l-3.6-3.4c-0.5-0.6-1.3-1.1-1.8-1.7L210,137z"/>
	<path class="st0" d="M177.3,133.8l0.8-6c1.6-0.1,2.7-0.1,3.9,0.6c0.8,0.5,1.8,1.4,1.5,2.8c-0.2,1.3-0.8,2-2.1,2.4
		C180,134,178.8,133.9,177.3,133.8 M179.4,119.1c2.2,0,4.3,0.6,3.9,3.2c-0.2,1-0.9,1.5-1.6,1.9c-1,0.5-1.8,0.4-3.1,0.5L179.4,119.1z
		 M172.5,137c4.1,0,9.8,0.5,12.9-1.6c2.1-1.5,3.3-4.7,1.1-7.6c-0.3-0.4-0.4-0.6-0.8-0.9c-0.3-0.2-0.8-0.6-1-0.9
		c1.6-0.8,3.3-3.3,2.3-6.1c-0.3-0.8-0.7-1.4-1.2-1.9c-1.2-1.1-2.5-1.6-4.2-1.8c-1.8-0.2-4.3-0.1-6.1-0.1L172.5,137z"/>
	<path class="st0" d="M82.2,133.7c0-0.7,1.8-13.8,2-14.2c3.2,0,4.9-0.3,6.9,1.6c1.4,1.3,2.5,3.7,1.9,6.4c-0.6,3.4-3.3,6-6.7,6.2
		C85.1,133.8,83.3,133.9,82.2,133.7 M77.6,137c3.9,0,9.9,0.4,13.2-1c3.1-1.4,5.3-4.1,6-8.2c0.4-2.4,0.3-3.9-0.7-6
		c-0.8-1.6-1.9-3-3.3-3.8c-3.6-2.3-7.7-1.9-12.4-1.9L77.6,137z"/>
	<path class="st0" d="M118.5,119.6c0.3-0.2,0.5-0.2,0.9-0.2c0.9,0,2,0,2.7,0.4c1,0.5,1.3,1.5,1.1,2.9c-0.5,2.5-2.7,2.7-5.5,2.7
		L118.5,119.6z M111.8,137.1l4.3,0l0.9-6.5c0.1-0.4,0.1-0.7,0.2-1.1c0-0.4,0-0.7,0.3-1c0.7,0,0.9,0.8,1.6,1.9
		c0.4,0.7,3.9,6.6,4.2,6.7h4.2c-0.3-0.7-0.9-1.6-1.3-2.3l-4-6.7c6-1,7.4-10.5-0.2-11.8c-1-0.2-6.3-0.3-7.2-0.1L111.8,137.1z"/>
	<path class="st0" d="M233.1,137h4.3l1-7c0.2-1.5,0-1.1,0.8-2c0.5,0.2,5.7,6.7,6.6,7.7c0.3,0.3,0.8,0.8,0.9,1.2l4.9,0
		c-0.2-0.4-6.3-8.1-6.9-8.8l-2.3-2.9c0.3-0.4,6.9-6.4,7.9-7.4c0.5-0.5,1.1-0.9,1.8-1.7c-0.7,0-4.4-0.1-4.8,0.1
		c-0.1,0-2.5,2.2-2.6,2.4c-0.3,0.3-0.4,0.4-0.7,0.6c-0.9,0.7-4.1,3.8-4.7,4.1l1-7.2l-4.2,0c-0.3,0.1-0.2,0.6-0.3,1.2l-0.5,4
		C234.6,126.1,233.6,132.4,233.1,137"/>
	<path class="st0" d="M137.7,129.2c0.5-0.9,1.1-1.7,1.6-2.6c0.3-0.5,1.4-2.3,1.7-2.6l1.6,5.3L137.7,129.2z M128,137l4.8,0l2.8-4.4
		l8.2,0l1.5,4.5h4.2c-0.1-0.6-6.9-20.9-7.3-21.7c-0.3,0.3-0.6,0.9-0.9,1.3l-11.6,17.7C129.3,134.9,128.2,136.4,128,137"/>
	<path class="st0" d="M196.6,129.2c0.5-0.8,1.1-1.8,1.7-2.6l1.7-2.6l1.6,5.3L196.6,129.2z M186.9,137l4.8,0c0.4-0.8,1-1.5,1.4-2.3
		c0.3-0.4,0.5-0.7,0.7-1.1c0.2-0.3,0.5-1,0.9-1l7.9,0l1.4,4.5h4.4l-7.2-21.7c-0.4,0.4-11.5,17.3-12.5,18.9L186.9,137z"/>
	<polygon class="st0" points="96.6,137 109,136.9 109.5,133.7 101.1,133.7 102,127.7 104.7,127.7 110.3,127.7 110.9,124.2 
		102.6,124.2 103.2,119.5 111.6,119.5 112.1,116.1 99.5,116.1 	"/>
	<path class="st0" d="M62.4,137l12.5,0l0.4-3.3l-8.3,0l0.8-6l6.3,0c0.4,0,1.8,0.1,2.1-0.1l0.5-3.4l-8.3,0l0.7-4.7l8.4,0l0.5-3.4
		l-12.6,0L62.4,137z"/>
	<path class="st0" d="M48.6,137h4c0.3-0.2,0.1,0.1,0.2-0.4l0.3-1.8c0.2-1.4,0.9-6.4,1.1-7h7.1l0.6-3.4h-7.2c0-0.5,0.5-4.1,0.7-4.7
		l7.2,0l0.4-3.4l-11.4,0L48.6,137z"/>
	<polygon class="st0" points="150.4,137 161.8,137 162.2,133.7 155.2,133.7 157.4,116.1 153.3,116.2 	"/>
	<path class="st2" d="M51,150.6L51,150.6c-0.4-0.6-0.8-1.3-1.4-2l-0.8-1.1c-0.4-0.5-0.6-0.8-0.7-1c-0.1-0.2-0.2-0.3-0.3-0.3
		c0.2,0,0.5,0,0.8,0c0.3,0,0.5,0,0.8,0c0.1,0.2,0.2,0.4,0.3,0.6c0.1,0.2,0.3,0.4,0.5,0.8l0.5,0.8c0.4,0.6,0.8,1.2,1.1,1.7v0
		c0.3-0.4,0.7-1,1-1.6l0.5-0.9c0.2-0.3,0.3-0.5,0.4-0.7c0.1-0.2,0.2-0.4,0.3-0.6c0.2,0,0.3,0,0.5,0c0.2,0,0.4,0,0.5,0
		c0,0-0.1,0.1-0.3,0.3c-0.1,0.2-0.4,0.5-0.7,1l-0.7,1c-0.5,0.7-0.9,1.3-1.3,1.9v0.6c0,0.9,0,1.5,0,1.8c0,0.4,0,0.7,0.1,0.9
		c-0.2,0-0.4,0-0.6,0c-0.2,0-0.5,0-0.6,0c0-0.2,0.1-0.6,0.1-0.9c0-0.4,0-1,0-1.8V150.6z M60.4,153.9c-1.4,0-2.5-0.4-3.3-1.1
		c-0.8-0.7-1.3-1.6-1.3-2.8c0-1.2,0.4-2.2,1.3-3c0.9-0.8,2-1.1,3.4-1.1c1.4,0,2.5,0.3,3.3,1.1c0.8,0.7,1.3,1.6,1.3,2.8
		c0,1.2-0.4,2.2-1.3,3C62.9,153.5,61.8,153.9,60.4,153.9 M60.5,153.4c1,0,1.8-0.3,2.5-1c0.6-0.7,0.9-1.5,0.9-2.6
		c0-1-0.3-1.9-0.9-2.5c-0.6-0.6-1.4-0.9-2.5-0.9c-1,0-1.8,0.3-2.4,1c-0.6,0.7-0.9,1.5-0.9,2.6c0,1,0.3,1.8,0.9,2.5
		C58.6,153.1,59.4,153.4,60.5,153.4 M74.1,150.4c0,1.1-0.3,2-0.9,2.6c-0.6,0.6-1.5,0.9-2.7,0.9c-1.2,0-2.1-0.3-2.6-0.8
		c-0.6-0.5-0.9-1.3-0.9-2.3V150l0-2.5c0-0.5,0-0.8,0-0.9c0-0.2,0-0.3,0-0.4c0.2,0,0.4,0,0.6,0c0.2,0,0.5,0,0.6,0
		c0,0.1,0,0.2-0.1,0.4c0,0.2,0,0.5,0,0.9c0,0.8,0,1.6,0,2.5v0.5c0,1,0.2,1.7,0.7,2.1c0.4,0.5,1.1,0.7,2,0.7c0.9,0,1.6-0.3,2-0.7
		c0.4-0.5,0.6-1.3,0.6-2.3V150l0-2.5c0-0.5,0-0.8,0-1c0-0.2,0-0.3,0-0.4c0.1,0,0.3,0,0.5,0c0.2,0,0.3,0,0.4,0c0,0.1-0.1,0.3-0.1,0.5
		c0,0.2,0,0.5,0,0.9c0,0.8,0,1.6,0,2.5V150.4z M76.5,152.4c0-0.7,0-1.6,0-2.5c0-0.9,0-1.7,0-2.5c0-0.5,0-0.8,0-1c0-0.2,0-0.3,0-0.4
		c0.4,0,0.7,0,1,0c0.3,0,0.5,0,0.6,0c0.2,0,0.4,0,0.6,0c0.2,0,0.4,0,0.5,0c0.9,0,1.6,0.1,2.1,0.5c0.5,0.3,0.7,0.7,0.7,1.4
		c0,0.6-0.3,1.1-1,1.5c-0.4,0.2-0.9,0.4-1.6,0.5c0.4,0.5,0.9,1.1,1.5,1.7l0.7,0.7c0.5,0.5,0.8,0.9,1,1c0.2,0.2,0.3,0.3,0.3,0.3
		c-0.2,0-0.5,0-0.8,0c-0.3,0-0.5,0-0.8,0c-0.1-0.2-0.2-0.4-0.4-0.6c-0.1-0.2-0.4-0.5-0.7-0.8l-0.7-0.8c-0.5-0.6-1-1.1-1.5-1.6h-0.4
		c0,0.9,0,1.7,0,2.4c0,0.5,0,0.8,0,1c0,0.2,0,0.3,0,0.4c-0.2,0-0.4,0-0.6,0c-0.2,0-0.5,0-0.6,0c0-0.1,0-0.2,0-0.4
		C76.5,153.2,76.5,152.9,76.5,152.4 M77.6,149.5L77.6,149.5c0.2,0,0.4,0,0.6,0c0.8,0,1.4-0.1,1.8-0.4c0.5-0.3,0.7-0.7,0.7-1.1
		c0-0.4-0.2-0.8-0.5-1c-0.4-0.2-0.9-0.3-1.5-0.3c-0.4,0-0.7,0-1.1,0V149.5z M87.5,152.4c0-0.7,0-1.6,0-2.5c0-0.9,0-1.7,0-2.4
		c0-0.5,0-0.8,0-1c0-0.2,0-0.3,0-0.4c0.3,0,0.6,0,0.8,0c0.2,0,0.4,0,0.6,0c0.2,0,0.4,0,0.6,0c0.2,0,0.4,0,0.5,0c1,0,1.8,0.2,2.2,0.5
		c0.5,0.3,0.7,0.8,0.7,1.5c0,0.7-0.3,1.2-0.9,1.6c-0.6,0.4-1.4,0.6-2.4,0.6c-0.4,0-0.8,0-1.1-0.1c0,0.8,0,1.5,0,2.2c0,0.5,0,0.8,0,1
		c0,0.2,0,0.3,0,0.4c-0.2,0-0.4,0-0.6,0c-0.2,0-0.4,0-0.6,0c0-0.1,0-0.2,0-0.4C87.5,153.2,87.5,152.9,87.5,152.4 M88.6,149.7
		L88.6,149.7c0.2,0,0.5,0,0.8,0c0.7,0,1.3-0.1,1.7-0.5c0.4-0.3,0.6-0.7,0.6-1.2c0-0.5-0.2-0.8-0.5-1.1c-0.4-0.2-0.9-0.4-1.6-0.4
		c-0.4,0-0.8,0-1.1,0V149.7z M94.2,153.8c0-0.1,0-0.2,0-0.4c0-0.2,0-0.5,0-1c0-0.7,0-1.6,0-2.5c0-0.9,0-1.8,0-2.5c0-0.5,0-0.8,0-1
		c0-0.2,0-0.3,0-0.4c0.1,0,0.4,0.1,0.7,0.1c0.3,0,0.7,0,1,0l0.9,0c0.4,0,0.7,0,1,0c0.3,0,0.6,0,0.8-0.1c0,0.1,0,0.2,0,0.4
		c0,0.1,0,0.3,0,0.4c-0.1,0-0.4,0-0.8-0.1c-0.4,0-0.7,0-1,0h-0.4c-0.4,0-0.7,0-1.1,0l0,2.8l1.1,0c0.4,0,0.7,0,1.1,0
		c0.4,0,0.6,0,0.8-0.1c0,0.1,0,0.2,0,0.4c0,0.1,0,0.3,0,0.4c-0.1,0-0.4-0.1-0.8-0.1c-0.4,0-0.8,0-1.1,0l-1.1,0c0,1.2,0,2.2,0,3.1
		l0.8,0h0.4c0.4,0,0.8,0,1.2,0c0.4,0,0.7,0,0.9-0.1c0,0.1,0,0.2,0,0.4c0,0.1,0,0.3,0,0.4c-0.2,0-0.4,0-0.8-0.1c-0.4,0-0.7,0-1,0
		l-0.9,0c-0.3,0-0.7,0-1,0C94.7,153.8,94.4,153.8,94.2,153.8 M100.7,152.4c0-0.7,0-1.6,0-2.5c0-0.9,0-1.7,0-2.5c0-0.5,0-0.8,0-1
		c0-0.2,0-0.3,0-0.4c0.4,0,0.7,0,1,0c0.3,0,0.5,0,0.6,0c0.2,0,0.4,0,0.6,0c0.2,0,0.4,0,0.5,0c0.9,0,1.6,0.1,2.1,0.5
		c0.5,0.3,0.7,0.7,0.7,1.4c0,0.6-0.3,1.1-1,1.5c-0.4,0.2-0.9,0.4-1.5,0.5c0.4,0.5,0.9,1.1,1.5,1.7l0.7,0.7c0.5,0.5,0.8,0.9,1,1
		c0.2,0.2,0.3,0.3,0.3,0.3c-0.2,0-0.5,0-0.8,0c-0.3,0-0.6,0-0.8,0c-0.1-0.2-0.2-0.4-0.4-0.6c-0.1-0.2-0.4-0.5-0.7-0.8l-0.7-0.8
		c-0.5-0.6-1-1.1-1.4-1.6h-0.4c0,0.9,0,1.7,0,2.4c0,0.5,0,0.8,0,1c0,0.2,0,0.3,0,0.4c-0.2,0-0.4,0-0.6,0c-0.2,0-0.4,0-0.6,0
		c0-0.1,0-0.2,0-0.4C100.7,153.2,100.7,152.9,100.7,152.4 M101.8,149.5L101.8,149.5c0.2,0,0.4,0,0.6,0c0.8,0,1.4-0.1,1.8-0.4
		c0.5-0.3,0.7-0.7,0.7-1.1c0-0.4-0.2-0.8-0.5-1c-0.4-0.2-0.9-0.3-1.5-0.3c-0.4,0-0.7,0-1.1,0V149.5z M108.2,152.4c0-0.7,0-1.6,0-2.5
		s0-1.8,0-2.5c0-0.5,0-0.8,0-1c0-0.2,0-0.3,0-0.4c0.1,0,0.4,0.1,0.8,0.1c0.4,0,0.8,0,1.3,0l0.8,0c0.4,0,0.7,0,1,0
		c0.3,0,0.6,0,0.8-0.1c0,0.1,0,0.2,0,0.4c0,0.1,0,0.3,0,0.4c-0.1,0-0.4,0-0.7-0.1c-0.4,0-0.7,0-1.1,0h-0.5c-0.4,0-0.8,0-1.1,0
		c0,0.8,0,1.7,0,2.7l1.3,0c0.4,0,0.8,0,1.1,0c0.4,0,0.7,0,0.8-0.1c0,0.1,0,0.2,0,0.4c0,0.1,0,0.3,0,0.4c-0.1,0-0.3,0-0.7,0
		c-0.4,0-0.8,0-1.2,0l-1.3,0c0,0.9,0,1.7,0,2.4c0,0.5,0,0.8,0,1c0,0.2,0,0.3,0,0.4c-0.2,0-0.4,0-0.6,0c-0.2,0-0.5,0-0.6,0
		c0-0.1,0-0.2,0-0.4C108.1,153.2,108.2,152.9,108.2,152.4 M114.3,153.8c0-0.1,0-0.2,0-0.4c0-0.2,0-0.5,0-1c0-0.7,0-1.6,0-2.5
		c0-0.9,0-1.8,0-2.5c0-0.5,0-0.8,0-1c0-0.2,0-0.3,0-0.4c0.1,0,0.4,0.1,0.7,0.1c0.3,0,0.7,0,1,0l0.9,0c0.4,0,0.7,0,1,0
		c0.3,0,0.6,0,0.8-0.1c0,0.1,0,0.2,0,0.4c0,0.1,0,0.3,0,0.4c-0.1,0-0.4,0-0.7-0.1c-0.4,0-0.7,0-1,0h-0.4c-0.4,0-0.7,0-1.1,0l0,2.8
		l1.1,0c0.4,0,0.7,0,1.1,0c0.4,0,0.7,0,0.8-0.1c0,0.1,0,0.2,0,0.4c0,0.1,0,0.3,0,0.4c-0.1,0-0.4-0.1-0.8-0.1c-0.4,0-0.8,0-1.1,0
		l-1.1,0c0,1.2,0,2.2,0,3.1l0.8,0h0.4c0.4,0,0.8,0,1.2,0c0.4,0,0.7,0,0.9-0.1c0,0.1,0,0.2,0,0.4c0,0.1,0,0.3,0,0.4
		c-0.2,0-0.4,0-0.8-0.1c-0.4,0-0.7,0-1,0l-0.9,0c-0.3,0-0.7,0-1,0C114.7,153.8,114.5,153.8,114.3,153.8 M127.5,152.6
		c0,0.1,0,0.2-0.1,0.3c0,0.1,0,0.2,0,0.3c-0.4,0.2-0.9,0.4-1.3,0.5c-0.5,0.1-1,0.2-1.5,0.2c-1.3,0-2.3-0.4-3.1-1.1
		c-0.8-0.7-1.2-1.6-1.2-2.8c0-1.2,0.4-2.2,1.3-3c0.9-0.8,2-1.1,3.3-1.1c0.5,0,1,0,1.5,0.1c0.4,0.1,0.9,0.2,1.4,0.4
		c-0.1,0.2-0.1,0.3-0.2,0.5c0,0.1-0.1,0.3-0.1,0.5l-0.2,0c-0.3-0.3-0.6-0.5-1-0.7c-0.4-0.2-0.8-0.3-1.3-0.3c-1,0-1.8,0.3-2.4,1
		c-0.6,0.7-0.9,1.5-0.9,2.6c0,1,0.3,1.8,0.9,2.4c0.6,0.6,1.4,1,2.4,1c0.5,0,1-0.1,1.4-0.2c0.5-0.2,0.9-0.4,1.2-0.7L127.5,152.6z
		 M130.9,152.4c0-0.7,0-1.6,0-2.5c0-1.3,0-2.4,0-3.3l-0.7,0c-0.4,0-0.8,0-1.2,0c-0.4,0-0.7,0-0.8,0.1c0-0.1,0-0.2,0-0.4
		c0-0.1,0-0.3,0-0.4c0.5,0,1,0.1,1.5,0.1c0.6,0,1,0,1.3,0h0.3h0.3c0.3,0,0.8,0,1.4,0c0.6,0,1.1,0,1.5-0.1c0,0.1,0,0.2,0,0.4
		c0,0.1,0,0.3,0,0.4c-0.2,0-0.4,0-0.9-0.1c-0.4,0-0.8,0-1.2,0h-0.5c0,0.9,0,2,0,3.3c0,0.9,0,1.7,0,2.5c0,0.5,0,0.8,0,1
		c0,0.2,0,0.3,0,0.4c-0.2,0-0.4,0-0.6,0c-0.2,0-0.4,0-0.6,0c0-0.1,0-0.2,0-0.4C130.9,153.2,130.9,152.9,130.9,152.4 M139.5,152.4
		c0-0.7,0-1.6,0-2.5c0-0.9,0-1.7,0-2.5c0-0.5,0-0.8,0-1c0-0.2,0-0.3-0.1-0.4l0.6,0l1.8,0c1,0,1.7,0.1,2.2,0.4
		c0.5,0.3,0.7,0.7,0.7,1.3c0,0.6-0.3,1.1-0.9,1.4c-0.3,0.2-0.7,0.3-1.1,0.4c0.6,0.1,1.1,0.2,1.5,0.5c0.5,0.3,0.8,0.8,0.8,1.5
		c0,0.6-0.3,1.2-1,1.6c-0.6,0.4-1.5,0.6-2.5,0.6l-1.6,0l-0.6,0c0-0.1,0-0.2,0.1-0.4C139.5,153.2,139.5,152.9,139.5,152.4
		 M140.6,146.7v2.7h0.8c0.7,0,1.2-0.1,1.6-0.4c0.4-0.3,0.6-0.6,0.6-1.1c0-0.4-0.2-0.7-0.6-0.9c-0.4-0.2-0.9-0.3-1.5-0.3
		C141.2,146.7,140.9,146.7,140.6,146.7 M140.6,150v3.2c0.2,0,0.5,0.1,0.8,0.1c0.8,0,1.4-0.2,1.9-0.4c0.4-0.3,0.6-0.7,0.6-1.3
		c0-0.5-0.2-0.9-0.6-1.1c-0.4-0.3-1-0.4-1.8-0.4H140.6z M146.9,152.4c0.4-0.7,0.8-1.5,1.3-2.4c0.8-1.5,1.4-2.8,1.8-3.8h0.2h0.1
		c0.5,1,1.1,2.3,1.8,3.8c0.4,0.9,0.8,1.7,1.2,2.4l0.7,1.4c-0.2,0-0.4,0-0.7,0s-0.5,0-0.7,0c-0.1-0.2-0.1-0.4-0.2-0.6
		c-0.1-0.2-0.2-0.5-0.4-0.8l-0.7-1.5c-0.5-0.1-1-0.1-1.6-0.1c-0.6,0-1.1,0-1.6,0.1c-0.3,0.5-0.5,1-0.7,1.5c-0.2,0.3-0.3,0.6-0.3,0.8
		c-0.1,0.2-0.1,0.4-0.2,0.6c-0.1,0-0.3,0-0.5,0c-0.2,0-0.3,0-0.5,0c0-0.1,0.1-0.2,0.2-0.4C146.4,153.2,146.6,152.9,146.9,152.4
		 M149.9,147.7c-0.3,0.7-0.7,1.4-1.1,2.2l-0.1,0.3c0.4,0.1,0.8,0.1,1.2,0.1c0.4,0,0.8,0,1.2-0.1l-0.1-0.3L149.9,147.7L149.9,147.7z
		 M156.3,152.4c0,0.5,0,0.8,0,1c0,0.2,0,0.3,0,0.4c-0.1,0-0.3,0-0.4,0c-0.2,0-0.3,0-0.4,0c0-0.1,0-0.2,0-0.4c0-0.2,0-0.5,0-1
		c0-0.7,0-1.6,0-2.5c0-0.9,0-1.7,0-2.4c0-0.5,0-0.8,0-1c0-0.2,0-0.3,0-0.4h0.2h0.2c1.1,1.1,2.4,2.4,4.1,3.9l2.1,1.9l0-2
		c0-0.9,0-1.8,0-2.5c0-0.5,0-0.8,0-1c0-0.2,0-0.3,0-0.4c0.1,0,0.3,0,0.4,0c0.2,0,0.3,0,0.4,0c0,0.1,0,0.2,0,0.4c0,0.2,0,0.5,0,1
		c0,0.8,0,1.6,0,2.5c0,1.6,0,2.8,0.1,3.9h-0.2h-0.2c-1.1-1.1-2.4-2.4-4.1-3.9l-2.1-1.9v1.9C156.2,150.8,156.2,151.7,156.3,152.4
		 M166.3,152.4c0,0.5,0,0.8,0,1c0,0.2,0,0.3,0,0.4c-0.2,0-0.4,0-0.6,0c-0.2,0-0.4,0-0.6,0c0-0.1,0-0.2,0-0.4c0-0.2,0-0.5,0-1
		c0-0.7,0-1.6,0-2.5c0-0.9,0-1.7,0-2.5c0-0.5,0-0.8,0-1c0-0.2,0-0.3,0-0.4c0.2,0,0.4,0,0.6,0c0.2,0,0.4,0,0.6,0c0,0.1,0,0.2,0,0.4
		c0,0.2,0,0.5,0,1c0,0.7,0,1.4,0,2.2h0c0.6-0.4,1.2-1,1.9-1.6c0.8-0.7,1.4-1.4,1.9-1.9c0.2,0,0.4,0,0.7,0c0.2,0,0.5,0,0.6,0
		c-0.1,0-0.2,0.2-0.5,0.4c-0.2,0.2-0.6,0.5-1.2,1l-1,0.9l-1.3,1.2l1.4,1.5l1.4,1.4c0.5,0.5,0.8,0.9,1,1c0.2,0.2,0.3,0.3,0.3,0.3
		c-0.2,0-0.5,0-0.8,0c-0.3,0-0.6,0-0.8,0c-0.1-0.2-0.3-0.4-0.4-0.6c-0.2-0.2-0.4-0.4-0.8-0.8l-0.6-0.7c-0.7-0.7-1.3-1.4-1.8-1.8h0
		l0,0.1C166.3,150.8,166.3,151.7,166.3,152.4 M172.7,152.4c0-0.7,0-1.6,0-2.5c0-0.9,0-1.7,0-2.5c0-0.5,0-0.8,0-1c0-0.2,0-0.3,0-0.4
		c0.2,0,0.4,0,0.6,0c0.2,0,0.4,0,0.6,0c0,0.1,0,0.2,0,0.4c0,0.2,0,0.5,0,1c0,0.7,0,1.6,0,2.5c0,0.9,0,1.7,0,2.5c0,0.5,0,0.8,0,1
		c0,0.2,0,0.3,0,0.4c-0.2,0-0.4,0-0.6,0c-0.2,0-0.4,0-0.6,0c0-0.1,0-0.2,0-0.4C172.7,153.2,172.7,152.9,172.7,152.4 M177,152.4
		c0,0.5,0,0.8,0,1c0,0.2,0,0.3,0,0.4c-0.1,0-0.3,0-0.4,0c-0.2,0-0.3,0-0.4,0c0-0.1,0-0.2,0-0.4c0-0.2,0-0.5,0-1c0-0.7,0-1.6,0-2.5
		c0-0.9,0-1.7,0-2.4c0-0.5,0-0.8,0-1c0-0.2,0-0.3,0-0.4h0.2h0.2c1.1,1.1,2.4,2.4,4.1,3.9l2.1,1.9l0-2c0-0.9,0-1.8,0-2.5
		c0-0.5,0-0.8,0-1c0-0.2,0-0.3,0-0.4c0.1,0,0.3,0,0.4,0c0.2,0,0.3,0,0.4,0c0,0.1,0,0.2,0,0.4c0,0.2,0,0.5,0,1c0,0.8,0,1.6,0,2.5
		c0,1.6,0,2.8,0.1,3.9h-0.2h-0.2c-1.1-1.1-2.4-2.4-4.1-3.9L177,148v1.9C177,150.8,177,151.7,177,152.4 M189.8,153.9
		c-1.3,0-2.4-0.4-3.3-1.1c-0.8-0.7-1.3-1.6-1.3-2.8c0-1.2,0.4-2.2,1.3-3c0.9-0.8,2-1.1,3.4-1.1c0.6,0,1.2,0,1.8,0.2
		c0.5,0.1,1.1,0.3,1.5,0.5c-0.1,0.2-0.1,0.3-0.2,0.4c0,0.1-0.1,0.3-0.1,0.5l-0.2,0c-0.3-0.3-0.8-0.6-1.3-0.8c-0.5-0.2-1-0.3-1.5-0.3
		c-1.1,0-1.9,0.3-2.6,1c-0.6,0.7-1,1.5-1,2.6c0,1,0.3,1.8,1,2.5c0.6,0.6,1.5,0.9,2.6,0.9c0.7,0,1.4-0.1,2.1-0.4v-0.8
		c0-0.5,0-0.9,0-1.2c0-0.3-0.1-0.6-0.1-0.9c0.2,0,0.4,0,0.7,0c0.2,0,0.5,0,0.7,0c0,0.1-0.1,0.3-0.1,0.5c0,0.2,0,0.5,0,0.9v0.2
		c0,0.5,0,0.9,0,1.1c0,0.2,0,0.4,0.1,0.5C192.3,153.7,191.1,153.9,189.8,153.9 M199,152.4c0-0.7,0-1.6,0-2.5c0-0.9,0-1.7,0-2.4
		c0-0.5,0-0.8,0-1c0-0.2,0-0.3,0-0.4c0.3,0,0.6,0,0.8,0c0.2,0,0.4,0,0.6,0c0.2,0,0.4,0,0.6,0c0.2,0,0.4,0,0.5,0c1,0,1.8,0.2,2.2,0.5
		c0.5,0.3,0.7,0.8,0.7,1.5c0,0.7-0.3,1.2-0.9,1.6c-0.6,0.4-1.4,0.6-2.4,0.6c-0.4,0-0.8,0-1.1-0.1c0,0.8,0,1.5,0,2.2c0,0.5,0,0.8,0,1
		c0,0.2,0,0.3,0,0.4c-0.2,0-0.4,0-0.6,0c-0.2,0-0.5,0-0.6,0c0-0.1,0-0.2,0-0.4C199,153.2,199,152.9,199,152.4 M200.1,149.7
		L200.1,149.7c0.3,0,0.5,0,0.8,0c0.7,0,1.3-0.1,1.7-0.5c0.4-0.3,0.6-0.7,0.6-1.2c0-0.5-0.2-0.8-0.5-1.1c-0.4-0.2-0.9-0.4-1.6-0.4
		c-0.4,0-0.7,0-1.1,0V149.7z M205.7,152.4c0.4-0.7,0.8-1.5,1.3-2.4c0.8-1.5,1.4-2.8,1.8-3.8h0.1h0.2c0.5,1,1.1,2.3,1.8,3.8
		c0.4,0.9,0.8,1.7,1.2,2.4l0.7,1.4c-0.2,0-0.4,0-0.7,0c-0.3,0-0.5,0-0.7,0c0-0.2-0.1-0.4-0.2-0.6c-0.1-0.2-0.2-0.5-0.4-0.8l-0.7-1.5
		c-0.5-0.1-1-0.1-1.6-0.1c-0.6,0-1.1,0-1.6,0.1c-0.3,0.5-0.5,1-0.7,1.5c-0.1,0.3-0.3,0.6-0.3,0.8c-0.1,0.2-0.1,0.4-0.2,0.6
		c-0.1,0-0.3,0-0.5,0c-0.2,0-0.4,0-0.5,0c0-0.1,0.1-0.2,0.2-0.4C205.3,153.2,205.4,152.9,205.7,152.4 M208.7,147.7
		c-0.3,0.7-0.7,1.4-1.1,2.2l-0.1,0.3c0.4,0.1,0.8,0.1,1.2,0.1c0.4,0,0.8,0,1.2-0.1l-0.1-0.3L208.7,147.7L208.7,147.7z"/>
	<path class="st2" d="M214.3,152.4c0-0.7,0-1.6,0-2.5c0-0.9,0-1.7,0-2.5c0-0.5,0-0.8,0-1c0-0.2,0-0.3,0-0.4c0.4,0,0.7,0,1,0
		c0.3,0,0.5,0,0.6,0c0.2,0,0.4,0,0.6,0c0.2,0,0.4,0,0.5,0c0.9,0,1.6,0.1,2.1,0.5c0.5,0.3,0.7,0.7,0.7,1.4c0,0.6-0.3,1.1-1,1.5
		c-0.4,0.2-0.9,0.4-1.6,0.5c0.4,0.5,0.9,1.1,1.5,1.7l0.7,0.7c0.5,0.5,0.8,0.9,1,1c0.2,0.2,0.3,0.3,0.3,0.3c-0.2,0-0.5,0-0.8,0
		c-0.3,0-0.5,0-0.8,0c-0.1-0.2-0.2-0.4-0.4-0.6c-0.1-0.2-0.4-0.5-0.7-0.8l-0.7-0.8c-0.5-0.6-1-1.1-1.5-1.6h-0.4c0,0.9,0,1.7,0,2.4
		c0,0.5,0,0.8,0,1c0,0.2,0,0.3,0,0.4c-0.2,0-0.4,0-0.6,0c-0.2,0-0.5,0-0.6,0c0-0.1,0-0.2,0-0.4C214.2,153.2,214.3,152.9,214.3,152.4
		 M215.3,149.5L215.3,149.5c0.2,0,0.4,0,0.6,0c0.8,0,1.4-0.1,1.8-0.4c0.5-0.3,0.7-0.7,0.7-1.1c0-0.4-0.2-0.8-0.5-1
		c-0.4-0.2-0.8-0.4-1.5-0.4c-0.4,0-0.7,0-1.1,0V149.5z M223.7,152.4c0-0.7,0-1.6,0-2.5c0-1.3,0-2.4,0-3.3l-0.7,0c-0.4,0-0.8,0-1.2,0
		c-0.4,0-0.7,0-0.8,0.1c0-0.1,0-0.2,0-0.4c0-0.1,0-0.3,0-0.4c0.5,0,1,0.1,1.5,0.1c0.6,0,1,0,1.3,0h0.3h0.3c0.3,0,0.8,0,1.4,0
		c0.6,0,1.1,0,1.5-0.1c0,0.1,0,0.2,0,0.4c0,0.1,0,0.3,0,0.4c-0.2,0-0.4,0-0.9-0.1c-0.4,0-0.8,0-1.2,0h-0.5c0,0.9-0.1,2-0.1,3.3
		c0,0.9,0,1.7,0,2.5c0,0.5,0,0.8,0,1c0,0.2,0,0.3,0,0.4c-0.2,0-0.4,0-0.6,0c-0.2,0-0.5,0-0.6,0c0-0.1,0-0.2,0-0.4
		C223.7,153.2,223.7,152.9,223.7,152.4 M229.7,152.4c0,0.5,0,0.8,0,1c0,0.2,0,0.3,0,0.4c-0.1,0-0.3,0-0.4,0s-0.3,0-0.4,0
		c0-0.1,0-0.2,0-0.4c0-0.2,0-0.5,0-1c0-0.7,0-1.6,0-2.5c0-0.9,0-1.7,0-2.4c0-0.5,0-0.8,0-1c0-0.2,0-0.3,0-0.4h0.2h0.2
		c1.1,1.1,2.4,2.4,4.1,3.9l2.1,1.9l0-2c0-0.9,0-1.8,0-2.5c0-0.5,0-0.8,0-1c0-0.2,0-0.3,0-0.4c0.1,0,0.3,0,0.4,0c0.2,0,0.3,0,0.4,0
		c0,0.1,0,0.2,0,0.4c0,0.2,0,0.5,0,1c0,0.8,0,1.6,0,2.5c0,1.6,0,2.8,0.1,3.9h-0.2h-0.2c-1.1-1.1-2.4-2.4-4.1-3.9l-2.1-1.9v1.9
		C229.6,150.8,229.6,151.7,229.7,152.4 M238.2,153.8c0-0.1,0-0.2,0-0.4c0-0.2,0-0.5,0-1c0-0.7,0-1.6,0-2.5c0-0.9,0-1.8,0-2.5
		c0-0.5,0-0.8,0-1c0-0.2,0-0.3,0-0.4c0.1,0,0.4,0.1,0.7,0.1c0.3,0,0.7,0,1,0l1,0c0.4,0,0.7,0,1,0c0.3,0,0.6,0,0.8-0.1
		c0,0.1,0,0.2,0,0.4s0,0.3,0,0.4c-0.1,0-0.4,0-0.7-0.1c-0.4,0-0.7,0-1,0h-0.4c-0.4,0-0.7,0-1.1,0l0,2.8l1.1,0c0.4,0,0.7,0,1.1,0
		c0.4,0,0.7,0,0.8-0.1c0,0.1,0,0.2,0,0.4c0,0.1,0,0.3,0,0.4c-0.1,0-0.4-0.1-0.8-0.1c-0.4,0-0.8,0-1.1,0l-1.1,0c0,1.2,0,2.2,0,3.1
		l0.8,0h0.4c0.4,0,0.8,0,1.2,0c0.4,0,0.7,0,0.9-0.1c0,0.1,0,0.2,0,0.4c0,0.1,0,0.3,0,0.4c-0.2,0-0.4,0-0.8-0.1c-0.4,0-0.7,0-1,0
		l-1,0c-0.3,0-0.7,0-1,0C238.7,153.8,238.4,153.8,238.2,153.8 M244.7,152.4c0-0.7,0-1.6,0-2.5c0-0.9,0-1.7,0-2.5c0-0.5,0-0.8,0-1
		c0-0.2,0-0.3,0-0.4c0.4,0,0.7,0,1,0c0.3,0,0.5,0,0.6,0c0.2,0,0.4,0,0.6,0c0.2,0,0.4,0,0.5,0c0.9,0,1.6,0.1,2.1,0.5
		c0.5,0.3,0.7,0.7,0.7,1.4c0,0.6-0.3,1.1-1,1.5c-0.4,0.2-1,0.4-1.5,0.5c0.4,0.5,0.9,1.1,1.5,1.7l0.7,0.7c0.5,0.5,0.8,0.9,1,1
		c0.2,0.2,0.3,0.3,0.3,0.3c-0.2,0-0.5,0-0.8,0c-0.3,0-0.6,0-0.8,0c-0.1-0.2-0.2-0.4-0.4-0.6c-0.1-0.2-0.4-0.5-0.7-0.8l-0.7-0.8
		c-0.5-0.6-1-1.1-1.5-1.6h-0.4c0,0.9,0,1.7,0,2.4c0,0.5,0,0.8,0,1c0,0.2,0,0.3,0,0.4c-0.2,0-0.4,0-0.6,0c-0.2,0-0.4,0-0.6,0
		c0-0.1,0-0.2,0-0.4C244.7,153.2,244.7,152.9,244.7,152.4 M245.8,149.5L245.8,149.5c0.2,0,0.4,0,0.6,0c0.8,0,1.4-0.1,1.8-0.4
		c0.5-0.3,0.7-0.7,0.7-1.1c0-0.4-0.2-0.8-0.5-1c-0.3-0.2-0.9-0.4-1.5-0.4c-0.4,0-0.7,0-1.1,0V149.5z"/>
</g>
</svg>
