<?xml version="1.0" encoding="utf-8"?>
<!-- Generator: Adobe Illustrator 23.0.1, SVG Export Plug-In . SVG Version: 6.00 Build 0)  -->
<svg version="1.1" id="Layer_1" xmlns="http://www.w3.org/2000/svg" xmlns:xlink="http://www.w3.org/1999/xlink" x="0px" y="0px"
	 viewBox="0 0 1000 1000" enable-background="new 0 0 1000 1000" xml:space="preserve">
<g>
	<path fill-rule="evenodd" clip-rule="evenodd" fill="#1B4695" d="M880,506.9l3,4.9l-1.2,87.4c-2.4,2.2-3,3.8-1.8,4.8l26.3-0.5
		c0.6-1.1-0.6-2.2-1.8-3.2L905,583l1.2-0.5l10.7,17.2l-1.2,4.3h32.9c0,0-2.4-3.8-6-4.8c-3.6-5.4-25.1-41.5-25.1-41.5
		c0-2.2,8.9-18.3,13.7-22.1c4.2-1.6,5.4-1.6,6-3.2h-17.9l-1.2,0.5c0,0,6,3.8,3.6,7c-3,2.7-14.3,23.7-14.3,23.7s-3,1.1-2.4-3.2
		c0-3.8-1.2-51.3-1.2-51.3s-1.8-8.6-9.6-5.9C886.5,506.4,880,506.9,880,506.9L880,506.9L880,506.9z"/>
	<path fill-rule="evenodd" clip-rule="evenodd" fill="#1B4695" d="M667.8,503.7v1.6c0,0,3.6,3.2,4.2,4.9c1.2,1.6,0.6,87.9,0.6,87.9
		s-6.6,5.9-4.2,5.9h48.4c1.2,0,12-3.2,17.3-11.9c6.6-10.2,9-26.4-10.7-39.9c8.3-7.6,26.9-37.8-16.8-48.6H667.8L667.8,503.7z
		 M693.5,508.5l1.2,41.5c0,0,17.9,1.6,18.5-18.9c1.2-21-12-21-17.9-22.1C689.9,508,693.5,508.5,693.5,508.5L693.5,508.5L693.5,508.5
		z M694.1,554.9v42.6c4.2,0.5,21.5-0.6,23.9-14.6C722.8,555.5,697.7,554.9,694.1,554.9L694.1,554.9L694.1,554.9z"/>
	<path fill-rule="evenodd" clip-rule="evenodd" fill="#1B4695" d="M833.9,535.5l1.8,4.3c3-2.2,4.2-2.2,7.2-4.3
		c3-1.6,6.6-2.7,9.5-2.7c4.2,0,7.8,1.6,10.8,4.3c2.4,2.2,2.4,4.3,3.6,8.1c0.6,2.7,0.6,8.1,0.6,16.2v27c0,2.7-1.2,13.5,3,14v1.1
		l-26.9,0.5v-1.6c4.2-4.3,3-7.6,3-14v-30.7c0-6,0.6-11.9,0-13.5c-1.2-1.6-1.8-1.6-6-1.6c-4.2,0-4.8,3.2-5.3,5.9l-0.6,39.9
		c-0.6,5.4,0.6,9.2,0.6,10.8c0,1.6,0.6,3.3,2.9,3.8v1.1h-28.6l0.6-1.6c4.8-0.6,3.6-7.6,3.6-14V549c0-5.4-0.6-8.6-1.2-9.7
		c-1.2-1.1-1.2-1.6,1.2-2.2l15.5-3.2C831.5,532.8,833.9,533.3,833.9,535.5L833.9,535.5L833.9,535.5z"/>
	<path fill-rule="evenodd" clip-rule="evenodd" fill="#1B4695" d="M749.1,545.7c6.6-1.1,15-3.8,20.9,0.6c6,4.9,5.4,4.9,5.4,8.6
		c0,3.8-7.1,7-14.3,9.2c-6.6,2.1-20.3,7.5-18.5,21.6c1.8,14,12.5,22.7,31.7,13.5c1.2-1.1,3.6-2.7,5.4,0c2.4,2.7,16.1,9.7,25.1-1.6
		c-3.6,0-6,0.5-6-6.5c0.6-6.5-0.6-40.5-0.6-40.5s0.6-15.1-18.5-18.3C759.2,533.9,751.5,544.1,749.1,545.7L749.1,545.7L749.1,545.7z
		 M776,568.4v24.8c0,0-6,6-9,1.6C761.6,587.8,762.9,558.2,776,568.4L776,568.4L776,568.4z"/>
	<path fill-rule="evenodd" clip-rule="evenodd" fill="#1B4695" d="M516.7,545.7c6-1.1,14.3-3.8,20.3,0.6c6,4.9,5.4,4.9,5.4,8.6
		c0,3.8-7.1,7-13.7,9.2c-7.2,2.1-20.9,7.5-19.1,21.6c2.4,14,12.5,22.7,31.1,13.5c1.8-1.1,4.2-2.7,6,0c2.4,2.7,16.1,9.7,25.1-1.6
		c-3.6,0-6,0.5-6-6.5c0.6-6.5-0.6-41.5-0.6-41.5s0.6-15.1-18.5-18.3C526.2,532.8,518.5,544.1,516.7,545.7L516.7,545.7L516.7,545.7z
		 M542.3,567.9l0.6,24.2c0,0-4.2,6-7.7,1.6c-6-8.1-6-21,2.4-27.5C539.3,564.6,542.3,567.9,542.3,567.9L542.3,567.9L542.3,567.9z"/>
	<path fill-rule="evenodd" clip-rule="evenodd" fill="#1B4695" d="M339.2,601.8v2.2h-29.3v-2.2c3.6-1.1,3.6-5.4,3.6-15.1v-66.4
		c0-6-0.6-15.1-4.8-15.1v-1.6h31.7v1.1c-4.8,2.7-4.8,8.1-4.8,15.7v66.4C335.6,592.1,335,599.7,339.2,601.8L339.2,601.8L339.2,601.8z
		"/>
	<path fill-rule="evenodd" clip-rule="evenodd" fill="#1B4695" d="M365.5,533.9c1.2-0.5,3.6-0.5,4.8,0c1.2,1.1-0.6,4.3,2.4,5.4
		c1.8,1.1,4.2-2.2,6.6-3.8c3-1.6,8.3-2.7,11.3-2.7c3.6,0,6.6,1.1,8.9,3.8c2.4,2.2,4.2,3.3,4.8,7v20v32.4c0.6,3.8,0.6,4.3,3,6.5v1.6
		h-26.9v-1.6c3.6-0.6,3-9.7,3-12.4v-30.2c0.6-5.4,0-11.9,0-12.9c-0.6-1.6-1.2-2.7-1.8-3.2c-0.6-1.1-1.8-1.1-2.4-1.1
		c-3.6,0-4.8-1.6-7.2,4.3l-0.6,51.8c0,1.6,1.2,3.2,2.4,3.8v1.6h-27.5v-2.2c2.4-1.1,3.6-2.2,3-6.5l0.6-50.7c0-2.7,0-4.3-0.6-4.8
		c-1.8-1.1-1.8-2.7-0.6-2.7L365.5,533.9L365.5,533.9z"/>
	<path fill-rule="evenodd" clip-rule="evenodd" fill="#1B4695" d="M450.3,542c-5.9-4.8-11.9-1.1-13.7,7c-3,11.3-4.2,24.3-1.8,36.1
		c2.4,9.7,10.2,14,15.5,9.7L450.3,542L450.3,542z M472.4,507.5v75c0,4.8-0.6,7.5-0.6,8.6c1.2,3.3-0.6,3.8,2.4,6.5l0.6,2.1
		c-5.4,1.1-7.8,2.2-13.2,3.2c-2.4,0-3,0.5-5.4,0c-4.8-3.8-9-3.2-12.5-1.1c-2.4,1.1-5.4,2.2-8.4,2.2c-7.8,0-13.8-3.8-18.5-10.8
		c-3.6-6.4-5.4-13.4-5.4-22.6c0-7,1.8-13.5,3.6-18.9c2.4-5.4,6-9.7,9.6-12.4c4.2-3.3,10.8-8.1,25.1-5.4v-10.3c0-3.2,0-5.9-0.6-10.8
		l-3.6-5.4l20.3-4.3C469.5,503.1,470.6,505.8,472.4,507.5L472.4,507.5L472.4,507.5z"/>
	<path fill-rule="evenodd" clip-rule="evenodd" fill="#1B4695" d="M506.5,537.7v57.7c0,3.3,0,5.4,3,7v1.6h-28.7v-1.6
		c3-1.1,3-5.4,3-12.4v-49.1c-1.2-1.1-1.8-2.2-1.8-3.2l14.4-3.8C502.3,532.3,505.3,534.4,506.5,537.7L506.5,537.7L506.5,537.7z
		 M493.9,506.4c3.6,0,6.6,1.1,9,3.2c1.8,2.2,3,4.8,3,8.1c0,3.2-1.2,5.9-3,8.1c-2.4,2.1-5.4,3.2-9,3.2c-3,0-6-1.1-8.4-3.2
		c-2.4-2.2-3-4.9-3-8.1c0-3.3,0.6-5.9,3-8.1C488,507.5,491,506.4,493.9,506.4L493.9,506.4L493.9,506.4z"/>
	<path fill-rule="evenodd" clip-rule="evenodd" fill="#1B4695" d="M600.9,535.5l1.8,4.3c3.6-2.2,4.2-2.2,7.2-4.3
		c3-1.6,6.5-2.7,10.1-2.7c3.6,0,7.2,1.6,10.2,4.3c2.4,2.2,3,4.3,3.6,8.1c0.6,2.7,0.6,8.1,0.6,16.2v27c0,2.7-1.2,13.5,3,14v1.1
		l-26.9,0.5v-1.6c4.2-4.3,3-7.6,3-14v-30.7c0-6,0.6-11.9,0-13.5c-1.2-1.6-1.8-1.6-6-1.6c-3.6,0-4.8,3.2-5.4,5.9l-0.6,39.9
		c-0.6,5.4,0.6,9.2,0.6,10.8c0,1.6,0.6,3.3,3,3.8v1.1h-28.7l0.6-1.6c4.8-0.6,3.6-7.6,3.6-14V549c0-5.4,0-8.6-1.2-9.7
		c-0.6-1.1-1.2-1.6,1.8-2.2l14.9-3.2C598.5,532.8,600.9,533.3,600.9,535.5L600.9,535.5L600.9,535.5z"/>
	<path fill-rule="evenodd" clip-rule="evenodd" fill="#1B4695" d="M729.4,430.3c0.6,0,1.2,1.1,1.8,0l0.6-7.6h-40.6
		c-0.6,2.7,0,2.7-0.6,5.9c0,0-0.6,0,0,16.7c0,7.5-0.6,24.8,0.6,27.5c0.6,1.6,6,4.3,4.2,4.3h-31.1c-0.6,0,0-1.1,0-1.1
		c3-3.2,4.2-5.9,3-11.9c-5.4,3.8-14.3,6.5-21.5,3.8c-22.7-8.1-19.1-38.3,5.4-42.1c7.8-1.1,17.3,5.4,17.9,3.2c0.6-1.1-0.6-4.3,0-7
		l-39.4,0.5v-5.9h1.8c4.2,0,26.3,0,26.9-0.5c-1.8-4.3-10.8-13-15.5-15.1c-1.2-0.5-3-1.1-1.8-1.6c30.5-3.2,28.1,13.5,35.9,15.6
		l4.8,1.6c0-0.5,0.6-0.5,0.6-1.1c-1.8-5.4-7.8-11.3-13.8-14.6c-1.8-0.5-3,0-2.4-1.1c6.6-2.2,23.3,0,26.3,3.8
		c2.4,4.3,6,11.9,11.9,11.9c27.5,0.5,57.4,0.5,84.9,0.5v6.5h-34.7l-0.6,8.1c7.8-6,32.3-9.7,35.9,12.9c1.8,9.7-3,22.6-16.7,24.3
		c-6.6,0.5-8.9-1.1-14.3-3.8c-0.6-0.5-0.6-1.1-0.6-1.1c10.2-3.8,10.2-17.8,4.8-25.9c-0.6-1.1-1.2-1.6-2.4-1.6
		c-3.6-0.6-6.6,0-6.6,3.2l-0.6,30.8c0,5.9,2.4,4.9,4.2,6.5c0,0.5,0.6,1.6,0.6,1.6c-1.8,0.5-4.2,0-6,0c-3,0-24.5,0.5-25.1,0
		c-0.6-0.5-1.2,0-0.6-0.5c6-2.7,3.6-3.2,4.2-12.4c-5.4,3.2-7.1,3.8-10.2,4.3c-12.5,2.7-25.1-7-26.3-18.3c-0.6-8.1,0.6-13,7.1-18.4
		C710.8,425.5,718,424.4,729.4,430.3L729.4,430.3L729.4,430.3z M309.9,431.9c7.2-7.5,19.7-9.2,29.9-5.4l-0.6-4.3h-34.1v-5.4h66.3
		c4.1-9.2,3.6-13,13.7-17.8c4.8-1.6,10.2-2.7,14.9-3.8c16.7-2.2,47.8-2.2,55.6,15.1c0.6,1.6,1.2,4.3,0.6,6.5l0,0h153v5.4h-8.3h-0.6
		v50.2l4.2,4.3h-29.2c-1.2,0,3.6-1.1,3.6-2.7v-29.7c-3-1.1-4.2-0.5-6.6-0.5c-0.6,2.1,1.2,2.1,1.8,2.7c5.4,14-0.6,27-17.3,29.1
		c-14.3,2.2-23.9-7-23.3-20.5c0.6-10.8,7.2-16.2,19.1-18.3c5.4-1.1,15.5,0,22.1,0c1.2-0.6,3,0,4.2-0.6v-0.5v-13
		c-4.2,0-50.8-1.1-50.8,0l-0.6,49.1c0,2.2,3,3.3,4.8,4.3v0.5l-29.9,0.5c-0.6,0,0-1.1,0-1.1c3-2.2,4.8-3.8,3-9.2
		c-4.8,1.1-8.3,2.2-11.9,2.2c-23.9,1.1-32.3-10.8-29.9-31.3c5.4-1.6,9.6,0,13.2-4.3c4.8-5.4,2.4-9.7-1.8-11.3h-17.9
		c-0.6,0-1.2,0-1.2,0v9.7c0,0.5,0.6,1.6,0,2.2c-4.8,1.6-13.7,0-19.1,0.5c-1.2,0-1.8,0-2.4-0.5c-0.6-1.6-0.6-2.2-1.8-2.7
		c-6.6-1.6-13.7,4.3-8.4,9.2c6,5.4,19.1,3.3,28.1,7.5c6.6,3.3,10.1,9.2,6.6,15.6c-5.4,12.4-25.1,16.7-38.2,13.5
		c-6.6-1.6-15.6-7-19.1-9.2c1.8-4.9,4.8-8.1,6.6-11.9c3.6,6.5,14.4,23.2,28.7,12.9c6-4.3,6-11.9,0-16.7c-9.6-9.2-28.7,1.6-34.1-12.4
		c-5.4-14,19.7-18.3,31.1-12.9c1.8,0-0.6-3.2,0-4.3v-0.5h-38.9l-0.6,50.2c0,1.6,3.6,3.2,4.8,3.8c0,0.5,0,1.1,0,1.1H384
		c-7.2,0-14.4,0.5-14.9-0.5c1.8-1.1,3-2.1,3.6-4.3v-50.2h-11.9l-0.6,12.4l-20.9-0.5c0.6-4.9-4.8-4.9-7.8-2.2c-1.8,2.2-3,5.9-1.2,8.1
		c9,11.9,34.6-5.9,37.6,17.3c2.4,15.1-17.3,18.9-17.3,18.9c0.6,8.6,8.4,14,14.9,12.9c1.2,1.1-2.4,2.7-3,3.2
		c-10.7,4.8-19.1,3.2-25.1-1.1c-9-5.4-14.4-15.6-23.9-21.6c-1.8-1.1-3.6-1.6-6-2.2c0-0.6-1.2-0.6-0.6-1.1l5.4-5.4
		c1.8,4.3,2.4,4.3,5.4,6.5c8.3,6.5,17.9,9.2,26.3,1.1c5.3-5.4,4.2-15.6-4.8-17.3c-10.2-2.1-20.9,4.3-28.1-3.8
		C306.9,443.3,305.7,436.8,309.9,431.9L309.9,431.9L309.9,431.9z M352.3,394.7c6,0,10.8,4.3,10.8,9.2c0,5.4-4.8,9.7-10.8,9.7
		c-5.4,0-10.2-4.3-10.2-9.7C342.2,399,347,394.7,352.3,394.7L352.3,394.7L352.3,394.7z M709.1,398.5c4.2,0,7.7,3.2,7.7,7
		c0,3.8-3.6,7-7.8,7c-4.2,0-7.8-3.2-7.8-7C701.3,401.7,704.9,398.5,709.1,398.5L709.1,398.5L709.1,398.5z M553.1,465.4
		c-10.2-1.1-11.4-13.5-1.2-15.6c1.8,0,3.6,0,5.4,0c0.6,1.1,1.2,1.1,2.4,1.6c4.8,5.4,4.2,10.2-2.4,14
		C556.1,465.4,554.3,465.4,553.1,465.4L553.1,465.4L553.1,465.4z M506.5,422.2c0,3.8-0.6,8.1-0.6,11.9c0,8.1,0,17.3,0,25.3
		c-5.4,4.9-13.1,5.4-16.7,2.7c-1.2-1.1-2.4-2.2-3-2.7c-1.2-4.3-2.4-8.6-0.6-13.5c7.2-1.6,10.8-3.2,14.9-8.6
		c1.8-4.3,2.4-8.1-0.6-15.1L506.5,422.2L506.5,422.2z M433.6,416.3c-5.4,0-16.2,0-21.5,0l0,0c-6,0-12,0-17.3,0c-0.6,0-0.6,0-0.6,0
		c-0.6-0.5-0.6-1.1-1.2-1.1c-0.6-4.3-0.6-7.5,1.8-10.2c8.4-9.2,31.7-9.2,40,0.5C437.2,409.8,436,413.1,433.6,416.3L433.6,416.3
		L433.6,416.3z M651.7,440.6l10.8,20.5C648.1,465.4,649.3,446,651.7,440.6L651.7,440.6L651.7,440.6z M731.2,439.5l-0.6,17.8
		c-10.7,8.6-14.9-3.8-12.6-14C719.2,437.3,724.6,428.7,731.2,439.5L731.2,439.5L731.2,439.5z M667.8,453.5c-4.8-5.9-8.4-13-12-19.4
		c0.6-0.5,0.6-1.1,0.6-1.6c13.7,0,12.6,10.8,11.9,20.5C668.4,453,667.8,453,667.8,453.5L667.8,453.5L667.8,453.5z"/>
	<path fill-rule="evenodd" clip-rule="evenodd" fill="#FFFFFF" d="M179.1,513.9c6.1,6.8,10.1,13.7,12.4,20.4l4.7-5l16,15.6
		C234,524.8,209.3,493.9,179.1,513.9L179.1,513.9L179.1,513.9z M141.5,507.6l20,11.9l-5.9,5.2l-17.7-0.5c1.6,26.3,42,27,40.7-9.9
		c0,0,0,0,0,0C163.7,514.6,151.4,512.1,141.5,507.6L141.5,507.6L141.5,507.6z M178.6,513.3c0.1,0.2,0.3,0.3,0.4,0.5
		c57.3-83.2,158.8-5,76.1,71.7l15.5,14.5l-5.3,5.2l-71.7-5.7l-1.6-38.6c-13.8,42.5-94.9,60.5-115-24.8l-21.4,4.2l33.2-56.1l4.8-5.2
		l36.2,21.6c-44.1-34.1-10.8-117.5,83-84l2.7-11.4l4.8-4.7l36.9,62.3l-5.4,5.7l-69,25.9l8-21.8c-29.4-10.9-42.2,22.3-12.3,41.6
		c0,0,0,0,0-0.1C178.6,513.9,178.6,513.6,178.6,513.3L178.6,513.3L178.6,513.3z"/>
	<path fill-rule="evenodd" clip-rule="evenodd" fill="#F3B033" d="M174.9,519.6c60.2,75.8-75,136.4-101.7,22.7L51.3,546l37.4-61.8
		l66.8,41l-23,4.7c5.8,28.5,41,24.4,42.2-10.2c-0.2,0.1-0.3,0.2-0.5,0.3c-105.9,2.1-83.4-139.7,34.8-97.7l5.9-16.1l36.3,62.3
		l-72.7,31.7l8.5-21.8c-29.9-10.9-42.8,22.3-12.8,41.6c53.5-87.3,160.4-5.2,77,71.7l12.8,13.5l-74.3,0.5l1.6-70.6l16.6,16.1
		C230.3,530.5,205.1,499.7,174.9,519.6L174.9,519.6L174.9,519.6z"/>
</g>
</svg>
