<?xml version="1.0" encoding="utf-8"?>
<!-- Generator: Adobe Illustrator 24.0.2, SVG Export Plug-In . SVG Version: 6.00 Build 0)  -->
<svg version="1.0" id="Layer_1" xmlns="http://www.w3.org/2000/svg" xmlns:xlink="http://www.w3.org/1999/xlink" x="0px" y="0px"
	 viewBox="0 0 300 280" enable-background="new 0 0 300 280" xml:space="preserve">
<g>
	<path fill="#F7A71C" d="M138.85,156.01c1.47,0,2.56,0.3,3.27,0.9c0.71,0.6,1.06,1.53,1.06,2.8c0,1.25-0.35,2.19-1.06,2.8
		c-0.71,0.61-1.8,0.91-3.27,0.91h-4.39v-7.41H138.85L138.85,156.01z M138.51,147.69c1.34,0,2.33,0.25,2.99,0.76
		c0.65,0.51,0.98,1.27,0.98,2.29c0,1.03-0.33,1.79-0.98,2.3c-0.65,0.5-1.65,0.75-2.99,0.75h-4.05v-6.09H138.51L138.51,147.69z
		 M131.72,165.66h7.26c2.27,0,4.01-0.49,5.24-1.48c1.23-0.98,1.84-2.38,1.84-4.18c0-1.37-0.37-2.52-1.12-3.43
		c-0.74-0.92-1.79-1.52-3.13-1.81c1.12-0.18,1.97-0.64,2.55-1.37c0.58-0.73,0.87-1.72,0.87-2.95c0-1.6-0.56-2.83-1.69-3.7
		c-1.13-0.87-2.74-1.3-4.82-1.3h-6.99V165.66L131.72,165.66z M160.01,158.04v0.56c0,1.63-0.42,2.93-1.25,3.91
		c-0.84,0.98-1.94,1.47-3.32,1.47c-1,0-1.79-0.26-2.38-0.78c-0.58-0.52-0.87-1.22-0.87-2.11c0-1.11,0.39-1.9,1.16-2.36
		c0.78-0.46,2.17-0.69,4.18-0.69H160.01L160.01,158.04z M160.88,151.84c-1.08-1.14-2.72-1.71-4.92-1.71c-0.81,0-1.65,0.09-2.51,0.26
		c-0.86,0.18-1.74,0.44-2.65,0.79v2.3c0.76-0.42,1.55-0.73,2.37-0.93c0.82-0.21,1.67-0.31,2.53-0.31c1.36,0,2.42,0.31,3.18,0.94
		c0.75,0.63,1.13,1.51,1.13,2.66v0.24h-3.49c-2.27,0-3.97,0.43-5.11,1.3c-1.14,0.87-1.71,2.15-1.71,3.86c0,1.46,0.46,2.63,1.37,3.5
		c0.92,0.87,2.15,1.31,3.7,1.31c1.23,0,2.27-0.22,3.11-0.66c0.85-0.44,1.56-1.12,2.13-2.04v2.3h2.49v-8.65
		C162.5,154.7,161.96,152.97,160.88,151.84L160.88,151.84z M178.9,151.75c-0.89-1.08-2.21-1.62-3.95-1.62
		c-1.06,0-1.99,0.23-2.8,0.68c-0.81,0.45-1.51,1.13-2.11,2.04v-2.36h-2.51v15.17h2.51v-8.57c0-1.48,0.39-2.65,1.16-3.51
		c0.78-0.86,1.84-1.29,3.18-1.29c1.12,0,1.96,0.36,2.52,1.07c0.56,0.71,0.84,1.79,0.84,3.22v9.07h2.49v-9.15
		C180.24,154.41,179.8,152.83,178.9,151.75L178.9,151.75z M185.12,165.66h2.51v-7.41l7.71,7.41h3.25l-8.38-8.07l8.04-7.1h-3.18
		l-7.43,6.54v-12.44h-2.51V165.66L185.12,165.66z"/>
	<path fill="#9E1D20" d="M55.28,124.56c-0.99-1.19-2.44-1.79-4.37-1.79c-1.17,0-2.2,0.25-3.09,0.75c-0.89,0.5-1.67,1.25-2.33,2.26
		v-2.6h-2.77v16.75h2.77v-9.47c0-1.64,0.43-2.93,1.29-3.87c0.86-0.95,2.03-1.42,3.51-1.42c1.24,0,2.16,0.39,2.78,1.18
		c0.62,0.79,0.93,1.97,0.93,3.56v10.02h2.75v-10.11C56.76,127.51,56.26,125.75,55.28,124.56L55.28,124.56z M71.08,123.5
		c-0.88-0.48-1.94-0.73-3.18-0.73c-2.02,0-3.67,0.81-4.94,2.42c-1.27,1.62-1.91,3.74-1.91,6.37c0,2.63,0.64,4.76,1.91,6.37
		c1.27,1.62,2.92,2.42,4.94,2.42c1.24,0,2.3-0.24,3.18-0.73c0.88-0.48,1.61-1.22,2.19-2.22v2.51h2.75v-23.27h-2.75v9.06
		C72.69,124.72,71.96,123.98,71.08,123.5L71.08,123.5z M65.14,126.81c0.83-1.15,1.98-1.73,3.43-1.73c1.46,0,2.6,0.58,3.44,1.73
		c0.84,1.15,1.26,2.74,1.26,4.76c0,2.02-0.42,3.61-1.26,4.76c-0.84,1.15-1.98,1.73-3.44,1.73c-1.46,0-2.6-0.58-3.43-1.73
		c-0.83-1.15-1.25-2.74-1.25-4.76C63.89,129.55,64.31,127.96,65.14,126.81L65.14,126.81z M82.9,138.57c1,1.2,2.46,1.79,4.38,1.79
		c1.17,0,2.19-0.25,3.07-0.74c0.88-0.49,1.66-1.25,2.33-2.27v2.57h2.75v-16.75h-2.75v9.5c0,1.64-0.43,2.93-1.29,3.87
		c-0.86,0.95-2.04,1.42-3.52,1.42c-1.24,0-2.16-0.4-2.78-1.19c-0.62-0.79-0.93-1.98-0.93-3.57v-10.04h-2.75v10.14
		C81.41,135.62,81.9,137.37,82.9,138.57L82.9,138.57z M109.3,123c-0.9-0.15-1.85-0.22-2.87-0.22c-2.05,0-3.64,0.43-4.76,1.29
		c-1.12,0.86-1.68,2.07-1.68,3.65c0,1.3,0.38,2.32,1.14,3.06c0.76,0.74,1.99,1.29,3.69,1.65l0.96,0.22
		c1.71,0.37,2.81,0.75,3.31,1.15c0.5,0.4,0.76,0.97,0.76,1.72c0,0.81-0.35,1.43-1.05,1.88c-0.7,0.44-1.7,0.67-2.99,0.67
		c-0.97,0-1.94-0.13-2.93-0.4c-0.99-0.26-1.99-0.66-3.01-1.19v2.84c1.08,0.35,2.1,0.61,3.07,0.79c0.97,0.17,1.91,0.26,2.8,0.26
		c2.15,0,3.85-0.45,5.08-1.36c1.23-0.91,1.85-2.14,1.85-3.69c0-1.37-0.41-2.43-1.23-3.19c-0.82-0.76-2.21-1.35-4.17-1.77l-0.94-0.21
		c-1.48-0.33-2.46-0.68-2.95-1.04c-0.49-0.36-0.73-0.86-0.73-1.5c0-0.84,0.34-1.47,1.02-1.88c0.68-0.42,1.71-0.63,3.07-0.63
		c0.9,0,1.76,0.1,2.6,0.3c0.84,0.2,1.65,0.5,2.42,0.9v-2.6C111.02,123.37,110.2,123.15,109.3,123L109.3,123z M117.06,139.93h2.75
		v-23.27h-2.75V139.93L117.06,139.93z M138.02,124.56c-0.99-1.19-2.44-1.79-4.37-1.79c-1.17,0-2.2,0.25-3.09,0.75
		c-0.89,0.5-1.67,1.25-2.33,2.26v-2.6h-2.77v16.75h2.77v-9.47c0-1.64,0.43-2.93,1.29-3.87c0.86-0.95,2.03-1.42,3.51-1.42
		c1.24,0,2.16,0.39,2.78,1.18c0.62,0.79,0.93,1.97,0.93,3.56v10.02h2.75v-10.11C139.5,127.51,139,125.75,138.02,124.56
		L138.02,124.56z"/>
	<path fill="#9E1D20" d="M153.91,123.5c-0.88-0.48-1.94-0.73-3.18-0.73c-2.02,0-3.67,0.81-4.94,2.42s-1.91,3.74-1.91,6.37
		c0,2.63,0.64,4.76,1.91,6.37c1.27,1.62,2.92,2.42,4.94,2.42c1.24,0,2.3-0.24,3.18-0.73c0.88-0.48,1.61-1.22,2.19-2.22v2.51h2.75
		v-23.27h-2.75v9.06C155.52,124.72,154.79,123.98,153.91,123.5L153.91,123.5z M147.97,126.81c0.83-1.15,1.98-1.73,3.43-1.73
		c1.46,0,2.6,0.58,3.44,1.73c0.84,1.15,1.26,2.74,1.26,4.76c0,2.02-0.42,3.61-1.26,4.76c-0.84,1.15-1.98,1.73-3.44,1.73
		c-1.46,0-2.6-0.58-3.43-1.73c-0.83-1.15-1.25-2.74-1.25-4.76C146.72,129.55,147.14,127.96,147.97,126.81L147.97,126.81z"/>
	<g>
		<path fill-rule="evenodd" clip-rule="evenodd" fill="#7ED1F0" d="M229.94,114.04c0.33-0.03,0.66-0.04,0.99-0.06v0.53
			c-3.58,0.56-8.87,4.26-13.01,8.9h-8.07C214.53,118.26,221.69,114.68,229.94,114.04L229.94,114.04z M216.61,124.96
			c-2.94,3.7-5.02,7.81-4.95,11.34h-7.5c0.25-4.11,1.82-8,4.39-11.34H216.61z M211.8,137.86c0.57,4.57,2.79,8.34,5.54,11.47h-9.17
			c-2.26-3.01-3.67-6.53-3.97-10.36c-0.03-0.37-0.05-0.75-0.05-1.11H211.8z M218.78,150.89c3.87,3.9,8.33,6.71,10.69,8.84
			c-8.16-0.34-15.41-3.69-20.04-8.84H218.78z M232.11,113.95c9.21-0.12,17.45,3.59,22.37,9.46h-8.24c-4.3-4.9-10.03-8.57-14.14-8.92
			V113.95z M255.68,124.96c2,2.88,3.26,6.19,3.54,9.76c0.04,0.53,0.06,1.06,0.06,1.58h-7.03c0-0.25-0.02-0.5-0.06-0.75
			c-0.29-3.59-2.12-7.3-4.66-10.59H255.68z M259.2,137.86c-0.36,4.18-2.09,8.12-4.83,11.47H246c3.25-3.85,5.64-7.94,6.15-11.47
			H259.2z M252.98,150.89c-4.48,4.63-11.02,7.87-18.53,8.68l0.35-0.23c3.36-2.23,6.85-5.21,9.83-8.45H252.98z M230.93,158.98
			l-10.72-8.09h10.72V158.98z M243.22,150.89l-11,8.11h-0.1v-8.11H243.22z M230.93,114.97l-11.01,8.31h11.01V114.97z M232.11,123.27
			h11.4l-11.3-8.5l-0.1,0.01V123.27z M232.11,123.27"/>
		<path fill-rule="evenodd" clip-rule="evenodd" fill="#E21E26" d="M218.64,147.98c-0.19-2.93-0.37-5.86-0.56-8.8
			c-0.34-4.11,0.81-5.51,3.93-5.7c2.22,0.03,4.92,1,7.39,1.5c1.83,0.32,3.64,0.26,3.83-1.03c-0.36-3.33,1.2-4.67,5.2-2.99
			c-0.03-2.64,0.68-4.58,2.29-5.71c-1.22,2.25-1.74,4.47-0.19,7.86c-1.65,0.97-2.26,1.95-0.66,4.02c0.85,0.6,0.92,1.22,0.75,2.57
			c2.64,1.65,3.02,5.71,0.7,5.71c-0.3,2.26-1.35,3.15-3.41,2.38c-1.26,0.2,0.74,1.16-0.09,1.59c-1.1,0.32-1.69-0.18-1.78-1.5
			c-1.04-0.54-1.57-0.38-1.59,0.47c0.49,0.04,1,0.53,0.28,1.03c-0.72,0.37-1.56-0.62-1.68-1.96c0.12-1.25-0.17-2.35-0.8-3.6
			c1.6-0.12,2.89-0.6,2.85-1.73c-0.05-0.81,0.2-1.38,1.03-2.2c0.37-2.38-0.49-3.87-3-3.42c-2.65,0.49-5.02,0.65-7.58-0.56
			c-3.93-2.15-7.1-1.26-6.83,1.5c0.16,3.24,0.31,6.49,0.47,9.73C219.02,147.42,218.83,147.7,218.64,147.98L218.64,147.98z
			 M222.79,149.28c-0.42,0-0.85,0-1.27,0c-0.69-0.65-1.08-1.23-0.99-2.31c0.07-0.46,0.12-0.91,0.19-1.37
			c2.52-1.09,3.62-3.21,2.12-5.58c-1.02-0.98,0.22-1.86,1.75-0.52c1.22,0.85,1.5,2.26,1.04,3.58c0.81,0.6,1.83,1,3.21,1.04
			c0.49,0.02,0.29,0.67-0.41,0.53c-1.17-0.09-2.21-0.38-3.11-0.88c-0.46,0.81-1.2,1.54-2.18,2.02
			C221.45,146.14,221.67,147.92,222.79,149.28L222.79,149.28z M226.09,145.4c0.43-0.41,0.12-1.23-0.85-0.28
			c-0.93,1.31-1.3,2.61-0.47,3.92c0.82,0.65,1.2,0.41,1.51,0.05C224.96,147.8,224.9,146.57,226.09,145.4L226.09,145.4z
			 M236.99,140.52c-0.7,0.57-1.23,1.84-0.53,3.07c0.67,0.89,1.07,1.86,0.03,2.35c-0.59,0.29-0.63,1.09,0.19,0.97
			c1.04-0.21,2.4-1.94,0.59-3.69C236.62,142.07,236.57,141.62,236.99,140.52L236.99,140.52z M237.58,136.44
			c-0.55,1.84-0.83,3.43,0.97,5.1c0.46,0.43,0.59,0.94,0.38,1.54c-0.19,0.63,0.01,0.97,0.57,1.72c0.27,0.49,0.03,1.34-0.38,1.66
			c-0.58,0.36-0.67,1.18,0.62,0.91c0.93-0.61,1.19-1.52,0.78-2.72c-0.72-0.52-0.9-1.21-0.53-2.07c0.21-1-0.37-1.45-0.78-2
			c-0.97-0.82-1.19-2.04-0.91-3.54C238.49,135.6,237.8,135.77,237.58,136.44L237.58,136.44z M239.49,140.23
			c-0.37-0.51,0.23-0.56,0.56-0.16c1.74,1.22,2.5,2.58,1.82,4.13c-0.51,0.74-1.11,0.34-0.88-0.13
			C241.71,142.8,240.94,141.52,239.49,140.23L239.49,140.23z M245.24,126.64c0.15,3.09-0.76,5.19-2.72,6.3
			c1.38,1.43,1.5,2.79,0.89,3.96c-0.55,0.61-0.63,1.34-0.64,2.08c-0.07,0.44-0.27,0.69-0.59,0.75c0.13,0.18,0.26,0.36,0.4,0.54
			c0.36-0.41,0.59-0.96,0.69-1.63c0.08-1,0.51-1.52,0.99-1.98c0.53-0.93,0.47-1.98-0.2-3.17
			C246.97,130.89,246.57,128.71,245.24,126.64L245.24,126.64z M240.9,135.38c0.19-0.06,0.41,0.09,0.47,0.32
			c0.07,0.24-0.04,0.47-0.23,0.53c-0.19,0.06-0.41-0.09-0.47-0.32C240.61,135.67,240.71,135.44,240.9,135.38L240.9,135.38z
			 M240.9,135.38"/>
	</g>
</g>
</svg>
