<?xml version="1.0" encoding="utf-8"?>
<!-- Generator: Adobe Illustrator 24.0.2, SVG Export Plug-In . SVG Version: 6.00 Build 0)  -->
<svg version="1.0" id="Layer_1" xmlns="http://www.w3.org/2000/svg" xmlns:xlink="http://www.w3.org/1999/xlink" x="0px" y="0px"
	 viewBox="0 0 300 280" enable-background="new 0 0 300 280" xml:space="preserve">
<g>
	<path fill-rule="evenodd" clip-rule="evenodd" fill="#004A8F" d="M74.73,168.42c-18.2,0-33.04-12.77-33.04-28.42
		c0-15.65,14.84-28.42,33.04-28.42c18.19,0,33.04,12.77,33.04,28.42C107.77,155.65,92.93,168.42,74.73,168.42L74.73,168.42z"/>
	<path fill-rule="evenodd" clip-rule="evenodd" fill="#FFFFFF" d="M95.93,142.88l3.69,0.16c-2.19,15.31-16.72,16.43-24.04,1.6
		l0.96-1.6C84.12,147.85,92.99,149.66,95.93,142.88L95.93,142.88z"/>
	<polygon fill-rule="evenodd" clip-rule="evenodd" fill="#ED1C24" points="70.93,120.6 78.3,118.2 78.62,159.87 70.6,162.59 
		70.93,120.6 	"/>
	<path fill-rule="evenodd" clip-rule="evenodd" fill="#FFFFFF" d="M96.09,137.27h3.37c-1.3-7.01-4.85-11.42-11.7-12.02
		c-5.72,0.11-10.58,3.42-14.58,9.94c-2.65,4.01-6.88,10.32-12.03,11.07c-6.2,0.9-9.8-4.56-7.12-9.26c1.63-2.86,6.02-4.06,9.1-3.77
		c0.02,0,0.04,0,0.05,0.01c2.82,0.28,5.41,1,7.64,2.36l0.05-5.91c-1.4-1.19-2.54-2.38-4.17-3.19c-2.22-1.11-4.39-1.47-6.49-1.08
		c-9.35,2.05-11.06,9.69-9.3,19.87c3.63,11.81,14.96,12.71,21.48,5.13C76.83,145.07,87.91,127.03,96.09,137.27L96.09,137.27z"/>
	<path fill-rule="evenodd" clip-rule="evenodd" fill="#ED1C24" d="M146,147.36c5.8,0,10.38-3.36,10.38-9.16
		c0-5.8-4.58-9.46-10.38-9.46c-5.8,0-10.37,3.66-10.37,9.46C135.63,144.01,140.21,147.36,146,147.36L146,147.36L146,147.36z
		 M146,143.09c-2.75,0-3.97-2.44-3.97-4.88c0-2.75,1.22-5.19,3.97-5.19c2.75,0,3.97,2.44,3.97,5.19
		C149.97,140.65,148.75,143.09,146,143.09L146,143.09L146,143.09z M155.77,133.63h3.35v7.02c0,4.27,1.53,6.71,7.02,6.71
		c1.53,0,2.44-0.31,3.66-0.31l-0.31-3.97c-0.61,0-1.22,0.31-1.83,0.31c-1.83,0-2.44-1.22-2.44-3.36v-6.41h4.27v-4.27h-4.27v-6.1
		l-5.79,2.14v3.97h-3.66V133.63L155.77,133.63z M190.86,147.06h6.11v-8.85h0.3l4.88,8.85h7.32l-6.71-9.76l6.11-7.94h-6.72
		l-4.88,7.32h-0.3v-13.43l-6.11,2.14V147.06L190.86,147.06z M119.46,147.06h6.1v-8.85l4.88,8.85h7.33l-6.41-9.76l6.1-7.94h-6.71
		l-5.19,7.32v-13.43l-6.1,1.83V147.06L119.46,147.06z M188.73,147.06c-0.3-1.52-0.3-2.75-0.3-4.27v-6.71c0-5.49-3.97-7.33-8.54-7.33
		c-2.44,0-4.88,0.31-7.02,1.22v4.28c1.83-0.92,3.66-1.22,5.8-1.22c2.14,0,3.97,0.61,3.97,3.05c-0.61-0.31-1.83-0.31-2.75-0.31
		c-3.36,0-9.46,0.61-9.46,6.1c0,3.97,3.36,5.5,6.71,5.5c2.75,0,4.27-0.92,5.8-3.05l0,0c0,0.92,0.31,1.83,0.31,2.75H188.73
		L188.73,147.06z M176.22,141.26c0-1.53,1.83-2.14,3.96-2.14c0.92,0,1.83,0,2.44,0c0,2.14-1.53,4.27-3.66,4.27
		C177.44,143.4,176.22,142.48,176.22,141.26L176.22,141.26L176.22,141.26z"/>
	<path fill-rule="evenodd" clip-rule="evenodd" fill="#004A8F" d="M211.48,124.17c0.48,0,0.95,0.12,1.41,0.37
		c0.46,0.25,0.82,0.6,1.07,1.06c0.26,0.46,0.38,0.94,0.38,1.44c0,0.49-0.13,0.97-0.38,1.43c-0.25,0.46-0.6,0.81-1.06,1.06
		c-0.46,0.25-0.93,0.38-1.43,0.38s-0.97-0.13-1.43-0.38c-0.45-0.25-0.81-0.61-1.06-1.06c-0.25-0.46-0.38-0.93-0.38-1.43
		c0-0.5,0.13-0.98,0.39-1.44c0.26-0.46,0.62-0.81,1.08-1.06C210.53,124.29,211,124.17,211.48,124.17L211.48,124.17z M211.48,124.64
		c-0.4,0-0.8,0.1-1.18,0.31c-0.38,0.21-0.68,0.5-0.89,0.89c-0.21,0.38-0.32,0.78-0.32,1.2c0,0.41,0.11,0.81,0.32,1.19
		c0.21,0.38,0.51,0.67,0.89,0.89c0.38,0.21,0.78,0.32,1.19,0.32s0.81-0.1,1.19-0.32c0.38-0.21,0.68-0.51,0.89-0.89
		c0.21-0.38,0.31-0.78,0.31-1.19c0-0.41-0.11-0.81-0.32-1.2c-0.21-0.38-0.51-0.68-0.9-0.89
		C212.27,124.75,211.88,124.64,211.48,124.64L211.48,124.64z M210.22,128.62v-3.08h1.06c0.36,0,0.62,0.03,0.79,0.09
		c0.16,0.06,0.29,0.16,0.39,0.3c0.1,0.14,0.14,0.29,0.14,0.45c0,0.22-0.08,0.42-0.24,0.59c-0.16,0.17-0.37,0.26-0.64,0.28
		c0.11,0.05,0.2,0.1,0.26,0.16c0.13,0.12,0.28,0.32,0.46,0.61l0.38,0.6h-0.6l-0.28-0.48c-0.22-0.38-0.39-0.62-0.52-0.72
		c-0.09-0.07-0.22-0.11-0.4-0.1h-0.29v1.31H210.22L210.22,128.62z M210.72,126.88h0.6c0.29,0,0.49-0.04,0.59-0.13
		c0.1-0.09,0.16-0.2,0.16-0.34c0-0.09-0.03-0.17-0.08-0.24c-0.05-0.07-0.12-0.13-0.21-0.16c-0.09-0.03-0.26-0.05-0.5-0.05h-0.57
		V126.88L210.72,126.88z"/>
	<path fill="#003974" d="M127.12,163.61h-1.64l-4.14-4.84c-0.14-0.17-0.23-0.29-0.28-0.35h-0.03v5.19h-1.16v-10.55h1.16v4.96h0.03
		c0.07-0.1,0.16-0.22,0.28-0.35l4.01-4.61h1.44l-4.58,5.06L127.12,163.61L127.12,163.61z M127.67,159.94c0-1.25,0.34-2.24,1.02-2.96
		c0.68-0.72,1.61-1.08,2.79-1.08c1.11,0,1.98,0.35,2.61,1.04c0.63,0.7,0.94,1.65,0.94,2.88c0,1.19-0.34,2.15-1.02,2.87
		c-0.68,0.73-1.58,1.09-2.7,1.09c-1.09,0-1.96-0.35-2.63-1.05C128,162.04,127.67,161.11,127.67,159.94L127.67,159.94z
		 M128.83,159.89c0,0.89,0.23,1.6,0.7,2.13c0.46,0.53,1.09,0.8,1.86,0.8c0.79,0,1.4-0.26,1.84-0.78c0.43-0.52,0.65-1.24,0.65-2.18
		c0-0.96-0.22-1.7-0.64-2.22c-0.43-0.52-1.04-0.78-1.84-0.78c-0.78,0-1.4,0.27-1.87,0.81C129.06,158.21,128.83,158.95,128.83,159.89
		L128.83,159.89z M140.4,163.53c-0.28,0.16-0.64,0.24-1.1,0.24c-1.29,0-1.94-0.73-1.94-2.19v-4.53h-1.31v-0.98h1.31v-1.85l1.13-0.37
		v2.22h1.91v0.98h-1.91v4.32c0,0.51,0.09,0.88,0.26,1.1c0.17,0.22,0.46,0.33,0.86,0.33c0.31,0,0.58-0.08,0.78-0.25V163.53
		L140.4,163.53z M142.22,156.61c0.74-0.48,1.59-0.71,2.54-0.71c1.75,0,2.62,0.93,2.62,2.79v4.92h-1.14v-1.19h-0.04
		c-0.52,0.91-1.29,1.36-2.32,1.36c-0.74,0-1.33-0.2-1.76-0.6c-0.43-0.4-0.64-0.92-0.64-1.58c0-1.4,0.83-2.21,2.48-2.45l2.28-0.33
		c0-1.31-0.52-1.96-1.57-1.96c-0.91,0-1.73,0.31-2.45,0.93V156.61L142.22,156.61z M144.39,160.03c-0.65,0.09-1.09,0.24-1.35,0.47
		c-0.25,0.22-0.38,0.57-0.38,1.04c0,0.38,0.13,0.68,0.4,0.92c0.27,0.23,0.62,0.35,1.06,0.35c0.6,0,1.1-0.22,1.5-0.65
		c0.4-0.43,0.6-0.97,0.6-1.61v-0.76L144.39,160.03L144.39,160.03z M155.85,163.61h-1.62l-3.39-3.61h-0.03v3.61h-1.14v-11.15h1.14
		v7.07h0.03l3.22-3.45h1.51l-3.54,3.64L155.85,163.61L155.85,163.61z M170.27,163.61v-7.12c0-0.54,0.04-1.22,0.11-2.04h-0.03
		c-0.13,0.5-0.23,0.83-0.32,0.99l-3.68,8.17h-0.52l-3.67-8.11c-0.1-0.21-0.2-0.56-0.31-1.05h-0.03c0.04,0.37,0.06,1.05,0.06,2.02
		v7.14h-1.13v-10.55h1.51l3.3,7.43c0.26,0.59,0.42,1,0.49,1.25h0.05c0.14-0.37,0.31-0.79,0.51-1.28l3.38-7.4h1.43v10.55H170.27
		L170.27,163.61z M174.23,156.61c0.74-0.48,1.59-0.71,2.54-0.71c1.75,0,2.62,0.93,2.62,2.79v4.92h-1.14v-1.19h-0.04
		c-0.52,0.91-1.29,1.36-2.32,1.36c-0.74,0-1.33-0.2-1.76-0.6c-0.43-0.4-0.64-0.92-0.64-1.58c0-1.4,0.83-2.21,2.48-2.45l2.28-0.33
		c0-1.31-0.52-1.96-1.57-1.96c-0.91,0-1.73,0.31-2.45,0.93V156.61L174.23,156.61z M176.4,160.03c-0.64,0.09-1.09,0.24-1.35,0.47
		c-0.25,0.22-0.38,0.57-0.38,1.04c0,0.38,0.14,0.68,0.4,0.92c0.27,0.23,0.62,0.35,1.06,0.35c0.6,0,1.1-0.22,1.51-0.65
		c0.4-0.43,0.6-0.97,0.6-1.61v-0.76L176.4,160.03L176.4,160.03z M187.88,163.61h-1.13v-4.34c0-1.6-0.6-2.4-1.79-2.4
		c-0.6,0-1.11,0.23-1.52,0.69c-0.41,0.46-0.61,1.06-0.61,1.79v4.26h-1.14v-11.15h1.14v4.88h0.03c0.58-0.96,1.4-1.44,2.48-1.44
		c1.69,0,2.54,1.02,2.54,3.07V163.61L187.88,163.61z M190.03,153.37c0-0.21,0.07-0.4,0.21-0.54c0.14-0.15,0.32-0.22,0.52-0.22
		c0.21,0,0.39,0.08,0.54,0.22c0.15,0.15,0.22,0.33,0.22,0.54c0,0.2-0.07,0.37-0.22,0.52c-0.15,0.15-0.33,0.23-0.54,0.23
		s-0.39-0.07-0.53-0.22C190.1,153.75,190.03,153.57,190.03,153.37L190.03,153.37z M190.19,163.61v-7.53h1.13v7.53H190.19
		L190.19,163.61z M199.99,163.61h-1.14v-4.3c0-1.63-0.59-2.44-1.78-2.44c-0.62,0-1.13,0.23-1.54,0.7c-0.4,0.47-0.6,1.05-0.6,1.75
		v4.3h-1.14v-7.53h1.14v1.26h0.03c0.56-0.96,1.39-1.44,2.47-1.44c0.82,0,1.46,0.27,1.89,0.8c0.44,0.53,0.65,1.3,0.65,2.31V163.61
		L199.99,163.61z M208.66,163.61h-1.13v-1.29h-0.03c-0.56,0.98-1.43,1.47-2.6,1.47c-0.95,0-1.71-0.34-2.27-1.02
		c-0.56-0.68-0.84-1.59-0.84-2.75c0-1.24,0.31-2.23,0.94-2.99c0.63-0.76,1.47-1.13,2.5-1.13c1.03,0,1.79,0.41,2.27,1.23h0.03v-4.67
		h1.13V163.61L208.66,163.61z M207.52,159.07c0-0.62-0.21-1.14-0.63-1.57c-0.42-0.43-0.93-0.64-1.54-0.64
		c-0.75,0-1.35,0.28-1.78,0.83c-0.43,0.56-0.64,1.31-0.64,2.26c0,0.87,0.2,1.56,0.62,2.08c0.41,0.52,0.96,0.78,1.66,0.78
		c0.67,0,1.22-0.24,1.66-0.73c0.44-0.49,0.66-1.11,0.66-1.87V159.07L207.52,159.07z M215,157.24c-0.21-0.16-0.51-0.24-0.9-0.24
		c-0.53,0-0.97,0.25-1.31,0.76c-0.34,0.51-0.51,1.17-0.51,1.99v3.85h-1.14v-7.53h1.14v1.56h0.03c0.17-0.54,0.44-0.95,0.79-1.25
		c0.35-0.3,0.74-0.45,1.17-0.45c0.32,0,0.57,0.04,0.73,0.1V157.24L215,157.24z M216.5,156.61c0.74-0.48,1.59-0.71,2.54-0.71
		c1.75,0,2.62,0.93,2.62,2.79v4.92h-1.14v-1.19h-0.04c-0.52,0.91-1.29,1.36-2.32,1.36c-0.74,0-1.33-0.2-1.76-0.6
		c-0.43-0.4-0.64-0.92-0.64-1.58c0-1.4,0.83-2.21,2.48-2.45l2.28-0.33c0-1.31-0.52-1.96-1.57-1.96c-0.91,0-1.73,0.31-2.45,0.93
		V156.61L216.5,156.61z M218.67,160.03c-0.64,0.09-1.09,0.24-1.35,0.47c-0.25,0.22-0.38,0.57-0.38,1.04c0,0.38,0.13,0.68,0.4,0.92
		c0.27,0.23,0.62,0.35,1.06,0.35c0.6,0,1.1-0.22,1.5-0.65c0.4-0.43,0.6-0.97,0.6-1.61v-0.76L218.67,160.03L218.67,160.03z
		 M227.61,163.61v-10.55h2.95c0.88,0,1.58,0.22,2.12,0.66c0.54,0.44,0.8,1.02,0.8,1.75c0,0.59-0.16,1.11-0.47,1.55
		c-0.31,0.44-0.76,0.77-1.34,0.96v0.03c0.7,0.07,1.27,0.33,1.7,0.79c0.43,0.46,0.64,1.05,0.64,1.78c0,0.89-0.32,1.62-0.96,2.18
		c-0.64,0.56-1.46,0.84-2.43,0.84H227.61L227.61,163.61z M228.76,154.13v3.47h1.28c0.7,0,1.25-0.17,1.64-0.5
		c0.39-0.34,0.59-0.8,0.59-1.4c0-1.05-0.68-1.57-2.04-1.57H228.76L228.76,154.13z M228.76,158.67v3.86h1.71
		c0.73,0,1.29-0.18,1.71-0.52c0.41-0.35,0.62-0.83,0.62-1.44c0-1.27-0.87-1.9-2.6-1.9H228.76L228.76,158.67z M236.19,156.61
		c0.74-0.48,1.59-0.71,2.54-0.71c1.75,0,2.62,0.93,2.62,2.79v4.92h-1.14v-1.19h-0.04c-0.52,0.91-1.29,1.36-2.32,1.36
		c-0.74,0-1.33-0.2-1.76-0.6c-0.43-0.4-0.64-0.92-0.64-1.58c0-1.4,0.83-2.21,2.48-2.45l2.28-0.33c0-1.31-0.52-1.96-1.57-1.96
		c-0.91,0-1.73,0.31-2.45,0.93V156.61L236.19,156.61z M238.36,160.03c-0.64,0.09-1.09,0.24-1.35,0.47
		c-0.25,0.22-0.38,0.57-0.38,1.04c0,0.38,0.13,0.68,0.4,0.92c0.27,0.23,0.62,0.35,1.06,0.35c0.6,0,1.1-0.22,1.5-0.65
		c0.4-0.43,0.6-0.97,0.6-1.61v-0.76L238.36,160.03L238.36,160.03z M249.84,163.61h-1.14v-4.3c0-1.63-0.6-2.44-1.78-2.44
		c-0.62,0-1.14,0.23-1.53,0.7c-0.4,0.47-0.6,1.05-0.6,1.75v4.3h-1.14v-7.53h1.14v1.26h0.03c0.56-0.96,1.39-1.44,2.47-1.44
		c0.83,0,1.46,0.27,1.89,0.8c0.44,0.53,0.65,1.3,0.65,2.31V163.61L249.84,163.61z M258.31,163.61h-1.62l-3.38-3.61h-0.03v3.61h-1.14
		v-11.15h1.14v7.07h0.03l3.21-3.45h1.5l-3.54,3.64L258.31,163.61L258.31,163.61z"/>
</g>
</svg>
