<svg fill="none" height="2500" viewBox="186.869 171.394 650.464 680.215" width="2500" xmlns="http://www.w3.org/2000/svg"><path d="m187 172c56.881-.069 113.762-.132 170.643-.169l2.552-.002 54.915-.033 26.932-.016 2.707-.001c28.94-.017 57.881-.047 86.822-.084a88488.49 88488.49 0 0 1 101.854-.075h2.507c13.305-.005 26.61-.024 39.914-.047 13.385-.024 26.769-.033 40.154-.027 7.946.003 15.892-.005 23.838-.029a3654.54 3654.54 0 0 1 17.831-.001c2.397.002 4.795-.003 7.192-.016 21.452-.106 40.918 1.916 57.139 17.5 10.821 12.489 15.333 25.667 15.246 41.962l.007 3.26c.006 3.605-.003 7.21-.012 10.815 0 2.611.002 5.222.005 7.832.004 5.676.001 11.352-.007 17.028-.013 8.44-.013 16.879-.011 25.319.002 14.198-.004 28.396-.016 42.594a59279.8 59279.8 0 0 0 -.022 42.171l-.001 2.649-.001 13.318c-.005 31.441-.018 62.882-.037 94.323-.018 30.544-.033 61.087-.041 91.631l-.001 2.853-.007 28.367-.017 57.786-.001 2.684c-.018 59.136-.05 118.272-.084 177.408-56.5.068-112.999.132-169.499.169l-2.535.002c-18.182.012-36.365.023-54.547.033l-26.751.016-2.689.001c-28.747.017-57.494.047-86.241.084-29.547.038-59.095.063-88.643.071l-12.529.004h-2.49c-13.215.005-26.431.024-39.646.047-13.295.024-26.59.033-39.885.027-7.893-.003-15.786.005-23.678.029-5.904.017-11.808.013-17.712.001-2.381-.002-4.762.003-7.144.016-21.915.109-40.988-2.272-57.756-17.961-12.01-11.967-18.344-27.114-18.386-44.047l.008-2.991-.003-3.219c-.003-3.577.001-7.154.006-10.731l-.003-7.749c-.002-5.626 0-11.251.004-16.877.006-8.365.006-16.73.005-25.094-.001-14.071.002-28.142.008-42.213.006-13.934.01-27.867.011-41.801v-2.624l.001-13.195c.003-31.16.009-62.32.019-93.479.009-30.274.016-60.547.02-90.82l.001-2.827.003-28.108.009-57.261v-2.66c.009-58.614.025-117.229.042-175.843z" fill="#000"/><path d="m230 238c8.346-.093 16.692-.164 25.039-.207 3.877-.021 7.754-.049 11.631-.095 3.755-.044 7.508-.067 11.263-.078 1.419-.007 2.839-.021 4.258-.043 17.519-.259 34.715 4.015 48.184 15.798a229.185 229.185 0 0 1 4.625 4.625l2.18 2.152c11.714 12.223 15.288 26.986 15.205 43.463l.025 6.066c.006 2.153.004 4.306.001 6.458-.007 4.518.009 9.035.028 13.553.038 9.603.051 19.205.061 28.808.011 10.344.027 20.689.071 31.033.015 3.746.024 7.492.018 11.237-.05 34.979 4.53 66.758 26.411 95.23l2.074 2.746c24.286 30.929 60.128 51.505 99.2 56.953l2.726.301 2.977.332c38.697 3.601 77.054-5.19 108.023-29.332l2.707-2.086c31.313-24.817 50.021-59.531 55.579-98.941.98-8.521.89-17.068.919-25.632l.03-5.324c.027-4.793.048-9.586.068-14.378.022-5.018.05-10.036.076-15.055.05-9.491.095-18.982.139-28.473.058-12.834.124-25.667.19-38.5.104-20.204.197-40.407.292-60.611h123v552h-123v-140l-13 8c-24.964 13.933-52.148 21.504-80.453 24.706-2.075.24-4.145.516-6.213.802-4.074.508-8.115.646-12.217.653l-2.257.015c-2.447.015-4.893.022-7.34.027l-2.576.009c-4.521.015-9.041.024-13.561.028-3.676.005-7.352.018-11.028.041-30.718.188-60.297-1.251-90.355-8.281l-2.813-.651c-29.366-6.968-57.701-19.669-82.187-37.349l-1.938-1.373c-10.466-7.438-19.872-15.674-29.062-24.627l-2.844-2.723c-5.879-5.725-11.092-11.825-16.156-18.277l-2.469-3.094c-20.93-26.463-35.332-56.907-43.281-89.656l-.602-2.468c-3.505-15.097-3.928-29.614-3.875-45.035.001-2.328 0-4.655-.001-6.982 0-6.28.011-12.56.025-18.84.013-6.577.014-13.154.016-19.731.006-11.027.018-22.053.036-33.08.019-11.351.033-22.702.041-34.053l.002-2.125.007-10.555c.021-29.127.056-58.254.101-87.381z" fill="#fefefe"/><path d="m499.437 285.625 2.05.014c10.121.082 19.735.509 29.513 3.361l2.016.586c31.438 9.416 56.216 30.035 71.796 58.852 3.97 7.618 6.943 15.25 9.188 23.562l.965 3.438c6.941 29.684 2.171 63.168-13.785 89.199-18.339 28.769-45.165 47.554-78.368 55.176-30.545 5.727-62.606-.941-88.502-17.921-12.531-8.634-24.422-19.836-32.31-32.892l-1.981-3.199c-8.36-13.829-13.021-28.017-16.019-43.801l-.586-2.77c-3.813-29.749 3.335-60.895 20.848-85.394 2.171-2.69 4.423-5.269 6.738-7.836l2.074-2.504c12.357-14.596 28.73-24.658 46.488-31.371l2.177-.831c12.367-4.415 24.641-5.811 37.698-5.669z" fill="#fefefe"/><path d="m427 310 2 1-5 5c0-3 0-3 1.5-4.688zm-4 5v2a159.15 159.15 0 0 1 -6 5l-2-1a370.045 370.045 0 0 1 2.875-3l1.617-1.688c1.508-1.312 1.508-1.312 3.508-1.312z" fill="#eaeaea"/><path d="m600 522 2 1v2l-5 1zm-5 4 2 1-4 4c0-3 0-3 2-5zm-5 4h2l-1 2z" fill="#eee"/><path d="m612 511 2 3a140.185 140.185 0 0 1 -7 5c0-3 0-3 2.5-5.688z" fill="#f7f7f7"/></svg>