<?xml version="1.0" encoding="utf-8"?>
<!-- Generator: Adobe Illustrator 23.0.1, SVG Export Plug-In . SVG Version: 6.00 Build 0)  -->
<svg version="1.1" id="Layer_1" xmlns="http://www.w3.org/2000/svg" xmlns:xlink="http://www.w3.org/1999/xlink" x="0px" y="0px"
	 viewBox="0 0 1000 1000" enable-background="new 0 0 1000 1000" xml:space="preserve">
<g>
	<path fill="#1C3184" d="M363.3,276.4V142.3H226.6V411C256.4,352.7,304.5,305.4,363.3,276.4"/>
	<path fill="#DF2111" d="M363.3,315.2c-81.8,47.3-136.7,135-136.7,235.9v251.7l0,0v54.9h136.7v-35.8v-34.5V551.1l0,0l0,0
		c0-69.4,52-126.9,119.7-135V279.4C439.5,281.5,398.7,294.3,363.3,315.2"/>
	<path fill="#1C3184" d="M517,279v136.7c67.3,8.5,119.7,65.6,119.7,135c0,75.4-61.3,136.3-136.7,136.3c-40.9,0-77.1-18.3-102.2-46.8
		v163.5c31.5,12.8,66,20,102.2,20c151.2,0,273.4-122.2,273.4-272.5C773.4,406.3,660.1,287.9,517,279"/>
</g>
</svg>
