<svg id="Layer_1" data-name="Layer 1" xmlns="http://www.w3.org/2000/svg" viewBox="0 0 1000 1000"><defs><style>.cls-1,.cls-3{fill:#fff;}.cls-2{fill:#005ca1;}.cls-3,.cls-4{fill-rule:evenodd;}.cls-4{fill:#d00a10;}</style></defs><rect class="cls-1" x="82.79" y="424.98" width="834.42" height="187.19"/><rect class="cls-2" x="88.76" y="431.01" width="822.49" height="175.12"/><path class="cls-3" d="M298.53,537.71l1.7,23.34a105.59,105.59,0,0,0,12.21,3.12,58.87,58.87,0,0,0,10.75,1.08q14.88-.24,23.13-8.1t8.39-20.43q-.16-10.23-6-16.31a59.7,59.7,0,0,0-15.46-11.13l-10.15-5.68a13.8,13.8,0,0,1-4.51-3.68,6.9,6.9,0,0,1-1.48-4.23,6.18,6.18,0,0,1,2.5-5.15,11.49,11.49,0,0,1,6.91-1.9,27.2,27.2,0,0,1,9,2,66.66,66.66,0,0,1,12.38,6.32v-20.5a90.79,90.79,0,0,0-11.57-3.29A51.11,51.11,0,0,0,326,472q-13,.22-20.52,6.9a22.41,22.41,0,0,0-7.69,17.18,24.25,24.25,0,0,0,4.1,13.92q4.13,6.16,12.62,11l5.87,3.34a98,98,0,0,1,10.51,6.54,8.78,8.78,0,0,1,3.91,7.18,7.41,7.41,0,0,1-3.13,6.07q-3.09,2.37-8.73,2.46a33,33,0,0,1-12-2.41,77.39,77.39,0,0,1-12.38-6.49m-72.95,24.7h53.75V544H245.6V526.7h28.47V508.8H245.6V493h33.23v-18H225.58Zm-62.75,0h20.51V520L216.7,475H194.82l-19.9,27.67L156.85,475H131.92l30.91,45.95Z"/><path class="cls-3" d="M790.79,562.41h15V521.52l39,40.89h19.55L820.7,516.94l39.47-42H842.58l-36.77,39v-39h-15v87.47Zm-99.67,0h14.64v-55.6l55.84,58.45h1.59V474.94H748.42v55.59L692.7,472.1h-1.58Zm-84.2,0L614,546.84h39.33l7,15.57h16l-41-90.31H634l-42.5,90.31Zm12.7-28,14.3-32.62L648,534.37Zm-94.67,28V474.94h25.82c7.06,0,15.77,1.15,21.58,5.7q7.21,5.66,7.21,16.54a18.56,18.56,0,0,1-3.36,11.26q-3.36,4.67-10.31,7.27a19.92,19.92,0,0,1,11.52,7.41c2.7,3.67,4.07,8.23,4.11,13.73q0,12.85-8.26,19.21t-24.85,6.35H525Zm14.67-12.26V522.88h10.64q8,0,12.11,3.52t4.14,9.82q0,6.72-4.21,10.33c-2.78,2.4-6.71,3.62-11.88,3.65Zm0-38.89V486.54h8.32q8.42,0,12.59,2.77t4.15,9a11.73,11.73,0,0,1-4.21,9.45q-4.19,3.47-11.93,3.54h-8.92Z"/><polygon class="cls-3" points="564.95 328.01 375.34 671.99 310.29 606.13 355.13 606.13 564.95 328.01"/><polygon class="cls-4" points="541.25 364.94 374.08 662.18 324.68 612.17 358.14 612.17 541.25 364.94"/></svg>